<?xml version="1.0" encoding="UTF-8"?>
<!-- Generator: Adobe Illustrator 16.0.0, SVG Export Plug-In . SVG Version: 6.00 Build 0)  -->
<!DOCTYPE svg PUBLIC "-//W3C//DTD SVG 1.1//EN" "http://www.w3.org/Graphics/SVG/1.1/DTD/svg11.dtd">
<svg version="1.1" id="Layer_1" xmlns="http://www.w3.org/2000/svg" xmlns:xlink="http://www.w3.org/1999/xlink" x="0px" y="0px" width="30px" height="30px" viewBox="0 0 30 30" enable-background="new 0 0 30 30" xml:space="preserve">
<g>
	<path fill="#010101" d="M0.546,0.146c-0.03,0-0.061,0-0.075,0.015C0.169,0.222,0.034,0.658,0.26,0.868l14.138,14.136L0.26,29.109   c-0.196,0.15-0.211,0.466-0.045,0.632c0.166,0.165,0.481,0.149,0.632-0.045L15,15.574l14.153,14.122   c0.15,0.194,0.452,0.21,0.633,0.045c0.165-0.166,0.15-0.481-0.045-0.632L15.588,15.004L29.741,0.868   c0.256-0.256-0.03-0.782-0.377-0.707c-0.091,0.015-0.166,0.06-0.211,0.12L15,14.388L0.847,0.282   C0.771,0.191,0.651,0.146,0.546,0.146L0.546,0.146z"/>
</g>
</svg>