<?xml version="1.0" encoding="utf-8"?>
<!-- Generator: Adobe Illustrator 19.2.1, SVG Export Plug-In . SVG Version: 6.00 Build 0)  -->
<svg version="1.1" id="Слой_1" xmlns="http://www.w3.org/2000/svg" xmlns:xlink="http://www.w3.org/1999/xlink" x="0px" y="0px"
	 viewBox="0 0 182.1 212.6" style="enable-background:new 0 0 182.1 212.6;" xml:space="preserve">
<style type="text/css">
	.st0{fill:#E5BF92;}
	.st1{fill:#010101;}
</style>
<g>
	<path class="st0" d="M181.8,92.6c0.1-0.1,0.1-0.3,0.2-0.4l0.1-0.3l-0.2-0.2c-0.3-0.3-0.7-0.5-1-0.8c-4.3-7.8-10-14-16.5-18.2
		c5.6-6.4,8.4-15.6,7.6-25.9l0-0.2l-0.2-0.1c-6.6-4.5-13.8-6.9-20.8-6.9c-1.9,0-3.7,0.2-5.5,0.5c-0.4-8.4-3.3-17.1-8.7-25.3
		l-0.2-0.3l-0.3,0.1c0,0,0,0,0,0l0-0.1l-0.3,0c-1.1-0.1-2.2-0.1-3.3-0.1c-8.5,0-16.4,1.8-23,5.2c-2.8-8.1-9.3-15.1-18.7-19.6L90.9,0
		l-0.2,0.1c-9.3,4.5-15.9,11.5-18.7,19.6c-6.6-3.4-14.5-5.2-23-5.2c-1.1,0-2.2,0-3.3,0.1l-0.3,0l0,0.3L45.3,15
		c-5.4,8.2-8.3,16.9-8.7,25.3c-1.8-0.3-3.6-0.5-5.5-0.5c-7,0-14.2,2.4-20.8,6.9l-0.2,0.1l0,0.2c-0.8,10.3,2,19.5,7.6,25.9
		C11.2,77.1,5.6,83.3,1.2,91.1c-0.3,0.3-0.7,0.5-1,0.8L0,92.1l0.1,0.3c0.1,0.1,0.1,0.3,0.2,0.4c-0.1,0.1-0.1,0.3-0.2,0.4L0,93.4
		c0,0,0.9,0.7,1.2,1c4.3,7.8,10,14,16.5,18.2c-5.6,6.4-8.4,15.6-7.6,25.9l0,0.2l0.2,0.1c6.6,4.5,13.8,6.9,20.8,6.9c0,0,0,0,0,0
		c1.9,0,3.7-0.2,5.5-0.5c0.4,8.4,3.3,17.1,8.7,25.3l0.2,0.3l0.3-0.1c0,0,0,0,0,0l0,0.1l0.3,0c1.1,0.1,2.2,0.1,3.3,0.1
		c8.5,0,16.4-1.8,23-5.2c2.8,8.1,9.3,15.1,18.7,19.6l0.2,0.1l0.2-0.1c9.3-4.5,15.9-11.5,18.7-19.6c6.6,3.4,14.5,5.2,23,5.2h0
		c1.1,0,2.2,0,3.3-0.1l0.3,0l0-0.3l0.1-0.2c5.4-8.2,8.3-16.9,8.7-25.3c1.8,0.3,3.6,0.5,5.5,0.5c0,0,0,0,0,0c7,0,14.2-2.4,20.8-6.9
		l0.2-0.1l0-0.2c0.8-10.3-2-19.5-7.6-25.9c6.5-4.2,12.2-10.4,16.5-18.2c0.3-0.3,0.7-0.5,1-0.8l0.2-0.2L182,93
		C181.9,92.9,181.8,92.7,181.8,92.6z M179.3,89.8c-5.8-4-12.3-6.1-19-6.1c-3.3,0-6.7,0.5-10,1.5c-4.6,1.4-9,3.8-12.9,6.9
		c-4.9-4-9.2-9.4-12.7-15.7c6.1,3.8,12.6,5.7,19,5.7c0,0,0,0,0,0c5,0,9.7-1.2,13.8-3.6c2.4-1.4,4.5-3.1,6.3-5.1
		C169.9,77.2,175.1,82.8,179.3,89.8z M108.7,62.8c2,3.1,3.1,6.4,3.2,9.6c-1,0.2-2,0.6-3,1.1c-3.7,2.2-5.8,6.4-5.7,11.5
		c-1.6-2.6-2.6-5.2-2.9-7.8c1.6-0.7,3.1-1.6,4.3-2.8C108,71.3,109.4,67.2,108.7,62.8z M104.9,111c-1.3-1.2-2.8-2.1-4.5-2.8
		c0.3-2.6,1.3-5.3,2.9-7.8c-0.1,5.1,1.9,9.3,5.7,11.5c0.9,0.5,1.9,0.9,3,1.1c-0.1,3.1-1.2,6.2-3,9.3
		C109.5,117.9,108,113.9,104.9,111z M73.4,122.6c-2-3.1-3.1-6.4-3.2-9.6c1-0.2,2-0.6,3-1.1c3.7-2.2,5.8-6.4,5.7-11.5
		c1.6,2.6,2.6,5.2,2.9,7.8c-1.6,0.7-3.1,1.6-4.3,2.8C74.1,114,72.7,118.1,73.4,122.6z M77.2,74.3c1.3,1.2,2.8,2.1,4.5,2.8
		c-0.3,2.6-1.3,5.3-2.9,7.8c0.1-5.1-1.9-9.3-5.7-11.5c-0.9-0.5-1.9-0.9-3-1.1c0.1-3.1,1.2-6.2,3-9.3C72.7,67.5,74.1,71.4,77.2,74.3z
		 M83.1,67.7c0,4.3,2.6,8.2,7.1,10.6C87.2,78.4,84.5,78,82,77c0.2-1.8,0.1-3.5-0.3-5.2c-1-4.3-3.8-7.5-7.9-9.2
		c3.6-0.1,6.9,0.6,9.7,2C83.3,65.6,83.1,66.6,83.1,67.7z M83.8,64.7c1.1,0.6,2.1,1.3,2.9,2.1c3.2,3,4.6,7,3.9,11.4
		c-4.6-2.3-7.3-6.2-7.3-10.5C83.4,66.7,83.6,65.7,83.8,64.7z M81.5,71.8c0.4,1.6,0.4,3.3,0.3,5c-1.6-0.7-3.1-1.6-4.3-2.8
		c-3.2-2.9-4.5-7-3.9-11.3C77.7,64.4,80.5,67.6,81.5,71.8z M73,73.8c3.7,2.2,5.8,6.5,5.5,11.6c-4.2-1.6-7-4.8-8-9.1
		c-0.3-1.2-0.4-2.4-0.3-3.6C71.1,72.9,72.1,73.3,73,73.8z M70.2,76.4c0.7,3,2.2,5.4,4.5,7.2c-1.5-0.6-3-0.9-4.6-0.9
		c-1.3,0-2.6,0.2-3.9,0.6c-1.2,0.4-2.3,0.9-3.4,1.6c-2.1-2.4-3.2-5.9-2.9-9.8c2.5-1.7,5.2-2.6,7.9-2.6c0.7,0,1.4,0.1,2.1,0.2
		C69.8,73.9,69.9,75.2,70.2,76.4z M78.1,85.9c-2.4,1.6-5,2.4-7.5,2.4c-1.9,0-3.7-0.5-5.2-1.4c-0.9-0.5-1.7-1.1-2.4-1.9
		c1-0.6,2.1-1.1,3.3-1.5c1.3-0.4,2.5-0.6,3.8-0.6C73,83,75.7,84,78.1,85.9z M65.2,87.2c1.6,0.9,3.4,1.4,5.4,1.4c2.5,0,5-0.8,7.4-2.2
		c-1.3,2.5-3,4.6-4.9,6.1c-1.5-1.2-3.2-2.1-5-2.7c-1.3-0.4-2.6-0.6-3.9-0.6c-2.6,0-5.2,0.8-7.4,2.4c1.6-2.7,3.7-4.9,6-6.4
		C63.5,86,64.3,86.7,65.2,87.2z M64.2,89.5c1.3,0,2.5,0.2,3.8,0.6c1.7,0.5,3.4,1.4,4.9,2.6c-1.5,1.2-3.1,2.1-4.9,2.6
		c-1.3,0.4-2.5,0.6-3.8,0.6h0c-2.8,0-5.5-1-7.8-2.8c-0.1-0.1-0.2-0.3-0.2-0.4c0.1-0.1,0.2-0.3,0.2-0.4
		C58.7,90.5,61.4,89.5,64.2,89.5z M64.2,96.2L64.2,96.2c1.3,0,2.6-0.2,3.9-0.6c1.8-0.6,3.5-1.5,5-2.7c1.9,1.6,3.6,3.6,4.9,6.1
		c-2.4-1.5-4.9-2.2-7.4-2.2c-1.9,0-3.8,0.5-5.4,1.4c-0.9,0.5-1.8,1.2-2.5,2c-2.3-1.5-4.4-3.7-6-6.4C59,95.4,61.5,96.2,64.2,96.2z
		 M78.1,99.5c-2.4,1.9-5.2,2.9-8,2.9c-1.3,0-2.5-0.2-3.8-0.6c-1.1-0.4-2.2-0.9-3.3-1.5c0.7-0.7,1.5-1.4,2.4-1.9
		c1.6-0.9,3.3-1.4,5.2-1.4C73.1,97.1,75.7,97.9,78.1,99.5z M62.8,100.6c1.1,0.7,2.2,1.2,3.4,1.6c1.3,0.4,2.6,0.6,3.9,0.6
		c1.6,0,3.1-0.3,4.6-0.9c-2.3,1.8-3.8,4.3-4.5,7.2c-0.3,1.2-0.4,2.4-0.4,3.7c-0.7,0.1-1.4,0.2-2.1,0.2h0c-2.6,0-5.4-0.9-7.9-2.6
		C59.6,106.5,60.7,103,62.8,100.6z M70.5,109.1c1-4.2,3.8-7.5,8-9.1c0.3,5.1-1.8,9.4-5.5,11.6c-0.9,0.5-1.8,0.9-2.8,1.1
		C70.1,111.5,70.2,110.3,70.5,109.1z M77.6,111.3c1.2-1.1,2.6-2,4.2-2.7c0.2,1.7,0.1,3.4-0.3,5c-1,4.2-3.7,7.4-7.8,9
		C73,118.2,74.4,114.2,77.6,111.3z M81.8,113.7c0.4-1.7,0.5-3.4,0.2-5.2c2.3-0.9,4.8-1.5,7.6-1.5c0.2,0,0.5,0,0.7,0
		c-4.5,2.4-7.1,6.3-7.1,10.7c0,1.1,0.2,2.1,0.5,3.1c-2.5,1.3-5.6,2-8.8,2c-0.3,0-0.6,0-0.8,0C78.1,121.1,80.8,117.9,81.8,113.7z
		 M83.5,117.7c0-4.3,2.7-8.2,7.3-10.5c0.7,4.4-0.7,8.5-3.9,11.4c-0.9,0.8-1.9,1.5-2.9,2.1C83.7,119.7,83.5,118.7,83.5,117.7z
		 M90.9,106.7c-0.4,0-0.8,0-1.3,0c-2.8,0-5.4,0.5-7.6,1.4c-0.4-2.8-1.5-5.6-3.2-8.3c0-0.1,0-0.1,0-0.2l0-0.1l-0.1,0
		c-0.1,0-0.1-0.1-0.2-0.1c-1.4-2.7-3.2-5-5.2-6.7c2.1-1.7,3.8-4,5.2-6.7c0.1,0,0.2-0.3,0.2-0.4c1.8-2.7,2.9-5.6,3.2-8.3
		c2.2,0.9,4.8,1.4,7.5,1.4c0.4,0,0.8,0,1.3,0c0.1,0,0.1,0.1,0.2,0.1l0.1,0l0.1,0c0.1,0,0.1-0.1,0.2-0.1c0.4,0,0.8,0,1.3,0
		c2.8,0,5.4-0.5,7.6-1.4c0.4,2.8,1.5,5.6,3.2,8.3c0,0.1,0,0.1,0,0.2l0,0.1l0.1,0c0.1,0,0.1,0.1,0.2,0.1c1.4,2.7,3.2,5,5.2,6.7
		c-2.1,1.7-3.8,4-5.2,6.7c-0.1,0-0.1,0.1-0.2,0.1l-0.1,0l0,0.1c0,0.1,0,0.1,0,0.2c-1.8,2.7-2.9,5.6-3.2,8.3
		c-2.2-0.9-4.8-1.4-7.5-1.4c-0.4,0-0.8,0-1.3,0c-0.1,0-0.1-0.1-0.2-0.1l-0.1,0l-0.1,0C91,106.7,90.9,106.7,90.9,106.7z M91.5,107.1
		c4.6,2.3,7.3,6.2,7.3,10.5c0,1-0.2,2-0.4,3c-1.1-0.6-2.1-1.3-2.9-2.1C92.1,115.6,90.8,111.5,91.5,107.1z M99,117.7
		c0-4.3-2.6-8.2-7.1-10.6c2.9-0.1,5.7,0.4,8.1,1.4c-0.2,1.8-0.1,3.5,0.3,5.2c1,4.3,3.8,7.5,7.9,9.2c-0.3,0-0.6,0-0.9,0
		c-3.3,0-6.3-0.7-8.8-2C98.9,119.8,99,118.7,99,117.7z M100.6,113.5c-0.4-1.6-0.4-3.3-0.3-5c1.6,0.7,3.1,1.6,4.3,2.7
		c3.2,2.9,4.5,7,3.9,11.3C104.4,121,101.6,117.8,100.6,113.5z M109.2,111.6c-3.7-2.2-5.8-6.5-5.5-11.6c4.2,1.6,7,4.8,8,9.1
		c0.3,1.2,0.4,2.4,0.3,3.6C111,112.4,110,112.1,109.2,111.6z M111.9,109c-0.7-3-2.2-5.4-4.5-7.2c1.5,0.6,3,0.9,4.6,0.9
		c1.3,0,2.6-0.2,3.9-0.6c1.2-0.4,2.3-0.9,3.4-1.6c2.1,2.4,3.2,5.9,2.9,9.8c-2.5,1.7-5.2,2.6-7.9,2.6c-0.7,0-1.4-0.1-2.1-0.2
		C112.3,111.5,112.2,110.2,111.9,109z M104,99.4c2.4-1.6,5-2.4,7.5-2.4c1.9,0,3.7,0.5,5.2,1.4c0.9,0.5,1.7,1.1,2.4,1.9
		c-1,0.6-2.1,1.1-3.3,1.5c-1.3,0.4-2.5,0.6-3.8,0.6C109.2,102.4,106.4,101.4,104,99.4z M116.9,98.2c-1.6-0.9-3.4-1.4-5.4-1.4
		c-2.5,0-5,0.8-7.4,2.2c1.3-2.5,3-4.6,4.9-6.1c1.5,1.2,3.2,2.1,5,2.7c1.3,0.4,2.6,0.6,3.9,0.6c2.6,0,5.2-0.8,7.4-2.4
		c-1.6,2.7-3.7,4.9-6,6.4C118.7,99.4,117.8,98.7,116.9,98.2z M118,95.8c-1.3,0-2.5-0.2-3.8-0.6c-1.7-0.5-3.4-1.4-4.9-2.6
		c1.5-1.2,3.1-2.1,4.9-2.6c1.3-0.4,2.5-0.6,3.8-0.6c2.8,0,5.5,1,7.8,2.8c0.1,0.1,0.2,0.3,0.2,0.4c-0.1,0.1-0.2,0.3-0.2,0.4
		C123.4,94.9,120.7,95.8,118,95.8z M118,89.2c-1.3,0-2.6,0.2-3.9,0.6c-1.8,0.6-3.5,1.5-5,2.7c-1.9-1.6-3.6-3.6-4.9-6.1
		c2.4,1.5,4.9,2.2,7.4,2.2h0c1.9,0,3.8-0.5,5.4-1.4c0.9-0.5,1.8-1.2,2.5-2c2.3,1.5,4.4,3.7,6,6.4C123.1,90,120.6,89.2,118,89.2z
		 M104,85.9c2.4-1.9,5.2-2.9,8-2.9c1.3,0,2.5,0.2,3.8,0.6c1.1,0.4,2.2,0.9,3.3,1.5c-0.7,0.7-1.5,1.4-2.4,1.9
		c-1.6,0.9-3.3,1.4-5.2,1.4h0C109,88.3,106.4,87.4,104,85.9z M119.3,84.8c-1.1-0.7-2.2-1.2-3.4-1.6c-1.3-0.4-2.6-0.6-3.9-0.6
		c-1.6,0-3.1,0.3-4.6,0.9c2.3-1.8,3.8-4.3,4.5-7.2c0.3-1.2,0.4-2.4,0.4-3.7c0.7-0.1,1.4-0.2,2.1-0.2c2.6,0,5.4,0.9,7.9,2.6
		C122.5,78.9,121.5,82.3,119.3,84.8z M111.6,76.2c-1,4.2-3.8,7.5-8,9.1c-0.3-5.1,1.8-9.4,5.5-11.6c0.9-0.5,1.8-0.9,2.8-1.1
		C112,73.9,111.9,75.1,111.6,76.2z M104.5,74.1c-1.2,1.1-2.6,2-4.2,2.7c-0.2-1.7-0.1-3.4,0.3-5c1-4.2,3.7-7.4,7.8-9
		C109.1,67.2,107.7,71.2,104.5,74.1z M100.3,71.7c-0.4,1.7-0.5,3.4-0.2,5.2c-2.3,0.9-4.8,1.5-7.6,1.5c-0.2,0-0.5,0-0.7,0
		c4.5-2.4,7.1-6.3,7.1-10.7c0-1.1-0.2-2.1-0.5-3.1c2.5-1.3,5.6-2,8.8-2c0.3,0,0.6,0,0.8,0C104,64.3,101.3,67.5,100.3,71.7z
		 M98.6,67.7c0,4.3-2.7,8.2-7.3,10.5c-0.7-4.4,0.7-8.5,3.9-11.4c0.9-0.8,1.9-1.5,2.9-2.1C98.4,65.7,98.6,66.7,98.6,67.7z M95,66.6
		c-2.2,2.1-3.6,4.6-4,7.5c-0.4-2.8-1.8-5.4-4-7.5c-0.9-0.8-1.9-1.5-3.1-2.2c1-3.1,3.5-5.7,7.1-7.5c3.5,1.7,6,4.4,7.1,7.5
		C96.9,65,95.9,65.8,95,66.6z M83.7,64.3c-2.6-1.3-5.6-2-8.9-2c-0.4,0-0.9,0-1.3,0l-0.1,0l0,0.1l0,0.1c-2.1,3.2-3.2,6.6-3.4,9.9
		c-0.7-0.1-1.4-0.2-2.1-0.2c-2.7,0-5.5,0.9-8.1,2.7l-0.1,0l0,0.1c-0.3,4,0.8,7.6,3,10.1c-2.5,1.6-4.7,4-6.4,7.1
		c-0.1,0.1-0.3,0.2-0.4,0.3l-0.1,0.1l0.1,0.1c0,0.1,0.1,0.1,0.1,0.2c0,0.1-0.1,0.1-0.1,0.2L55.6,93l0.1,0.1c0.1,0.1,0.3,0.2,0.4,0.3
		c1.7,3,3.9,5.5,6.4,7.1c-2.2,2.5-3.3,6.1-3,10.1l0,0.1l0.1,0c2.6,1.8,5.4,2.7,8.1,2.7h0c0.7,0,1.4-0.1,2.1-0.2
		c0.1,3.3,1.3,6.7,3.4,9.9l0.1,0.1l0.1,0c0,0,0,0,0,0l0,0.1l0.1,0c0.4,0,0.9,0,1.3,0c3.3,0,6.4-0.7,8.9-2c1.1,3.1,3.6,5.8,7.1,7.5
		c-0.1,0-0.2,0.1-0.3,0.2c-1.1-0.1-2.2-0.1-3.2-0.1c-7.1,0-13.8,1.3-19.6,3.7c-1-7.2-3.8-14.4-8.3-21.4c0-0.2,0-0.3,0-0.5l0-0.2
		l-0.2-0.1c-0.1-0.1-0.3-0.2-0.4-0.3c-3.5-7-8.1-12.8-13.4-17.1c5.3-4.4,9.9-10.2,13.4-17.1c0.1-0.1,0.3-0.2,0.4-0.3l0.2-0.1l0-0.2
		c0-0.2,0-0.3,0-0.5c4.5-7,7.3-14.3,8.3-21.4c5.8,2.3,12.3,3.5,19.3,3.5c0,0,0,0,0,0c1.1,0,2.2,0,3.2-0.1c0.1,0.1,0.3,0.1,0.4,0.2
		C87.2,58.6,84.7,61.2,83.7,64.3z M84.1,120.9c1.1-0.6,2.2-1.3,3.1-2.2c2.2-2.1,3.6-4.6,4-7.5c0.4,2.8,1.8,5.4,4,7.5
		c0.9,0.8,1.9,1.5,3.1,2.2c-1,3.1-3.5,5.7-7.1,7.5C87.6,126.7,85.1,124,84.1,120.9z M98.5,121.1c2.6,1.3,5.6,2,8.9,2
		c0.4,0,0.9,0,1.3,0l0.1,0l0-0.1l0-0.1c2.1-3.2,3.2-6.6,3.4-9.9c0.7,0.1,1.4,0.2,2.1,0.2c0,0,0,0,0,0c2.7,0,5.5-0.9,8.1-2.7l0.1,0
		l0-0.1c0.3-4-0.8-7.6-3-10.1c2.5-1.6,4.7-4,6.4-7.1c0.1-0.1,0.3-0.2,0.4-0.3l0.1-0.1l-0.1-0.1c0-0.1-0.1-0.1-0.1-0.2
		c0-0.1,0.1-0.1,0.1-0.2l0.1-0.1l-0.1-0.1c-0.1-0.1-0.3-0.2-0.4-0.3c-1.7-3-3.9-5.5-6.4-7.1c2.2-2.5,3.3-6.1,3-10.1l0-0.1l-0.1,0
		c-2.6-1.8-5.4-2.7-8.1-2.7c-0.7,0-1.4,0.1-2.1,0.2c-0.1-3.3-1.3-6.7-3.4-9.9l-0.1-0.1l-0.1,0c0,0,0,0,0,0l0-0.1l-0.1,0
		c-0.4,0-0.9,0-1.3,0c-3.3,0-6.4,0.7-8.9,2c-1.1-3.1-3.6-5.8-7.1-7.5c0.1,0,0.2-0.1,0.3-0.2c1.1,0.1,2.2,0.1,3.2,0.1
		c7.1,0,13.8-1.3,19.6-3.7c1,7.2,3.8,14.4,8.3,21.4c0,0.2,0,0.3,0,0.5l0,0.2l0.2,0.1c0.1,0.1,0.3,0.2,0.4,0.3
		c3.5,7,8.1,12.8,13.4,17.1c-5.3,4.4-9.9,10.2-13.4,17.1c-0.1,0.1-0.3,0.2-0.4,0.3l-0.2,0.1l0,0.2c0,0.2,0,0.3,0,0.5
		c-4.5,7-7.3,14.3-8.3,21.4c-5.8-2.3-12.3-3.5-19.3-3.5c-1.1,0-2.2,0-3.2,0.1c-0.1-0.1-0.3-0.1-0.4-0.2
		C95,126.8,97.4,124.2,98.5,121.1z M124.3,75.2c6.1-5,13.3-7.6,20.7-7.6c3.2,0,6.5,0.5,9.8,1.5c2.9,0.9,5.8,2.2,8.4,3.8
		c-1.8,1.9-3.8,3.5-6.1,4.8c-4,2.3-8.6,3.5-13.4,3.5C137.2,81.3,130.5,79.2,124.3,75.2z M145.6,41c1.8-0.3,3.6-0.5,5.4-0.5
		c6.8,0,13.8,2.3,20.2,6.6c0.7,10.1-2,19-7.5,25.3c-2.8-1.7-5.7-3.1-8.8-4c-3.3-1-6.7-1.5-10-1.5c-4,0-8,0.8-11.8,2.3
		c5.8-4.6,9.8-10.9,11.5-18.5C145.4,47.4,145.7,44.2,145.6,41z M143.9,50.4c-2.5,10.9-9.7,19.2-20.5,23.3
		c-0.7-13.1,4.6-24.2,14.2-29.7c2.3-1.3,4.7-2.2,7.2-2.8C144.9,44.3,144.6,47.4,143.9,50.4z M136.5,15.8c5.1,8,7.9,16.4,8.2,24.5
		c-2.7,0.6-5.2,1.6-7.6,2.9c-9.6,5.5-15,16.5-14.6,29.5c-4.1-6.6-6.6-13.4-7.5-20.1c4.2-1.8,8-4.2,11.2-7.2
		C134.6,37.8,138.2,27.3,136.5,15.8z M125.7,44.9c-3.1,2.8-6.7,5.2-10.7,6.9c-0.5-4.4-0.3-8.8,0.7-12.9c2.5-10.8,9.6-19,20.1-23.2
		C137.4,27,133.9,37.4,125.7,44.9z M132.7,15.2c0.7,0,1.4,0,2.1,0.1c-10.4,4.4-17.5,12.6-20,23.5c-1,4.3-1.2,8.8-0.6,13.4
		c-5.8,2.4-12.4,3.7-19.5,3.7c-0.6,0-1.2,0-1.8,0c11.5-6.2,18.2-16.3,18.2-27.4c0-2.8-0.4-5.4-1.2-8C116.5,17,124.3,15.2,132.7,15.2
		z M110.4,28.5c0,11.1-7,21.1-18.7,27.1c-1.8-11.4,1.7-21.8,10-29.4c2.2-2.1,4.8-3.9,7.5-5.4C110,23.3,110.4,25.8,110.4,28.5z
		 M90.9,0.9C100,5.3,106.4,12.1,109,20c-2.9,1.6-5.5,3.4-7.8,5.6c-5.7,5.3-9.2,11.9-10.3,19.2c-1.1-7.3-4.6-13.9-10.3-19.2
		c-2.3-2.2-5-4-7.8-5.6C75.4,12.1,81.8,5.3,90.9,0.9z M72.5,20.8c2.8,1.5,5.3,3.3,7.5,5.4c8.2,7.6,11.7,18,10,29.4
		c-11.7-6-18.7-16.1-18.7-27.1C71.4,25.8,71.8,23.3,72.5,20.8z M49.1,15.2c8.4,0,16.2,1.8,22.7,5.2c-0.8,2.6-1.2,5.3-1.2,8
		c0,11.1,6.8,21.2,18.2,27.4c-0.6,0-1.2,0-1.8,0h0c-6.9,0-13.4-1.2-19.2-3.5c0.5-4.6,0.3-9.1-0.6-13.4c-2.5-11-9.7-19.3-20.4-23.7
		C47.6,15.2,48.3,15.2,49.1,15.2z M46.1,15.8C56.7,19.9,64,28.2,66.5,39.1c0.9,4.2,1.2,8.5,0.7,12.9c-4.2-1.8-7.9-4.2-11.1-7.1
		C47.9,37.4,44.4,27.1,46.1,15.8z M45.1,16.7C43.8,27.9,47.4,38,55.5,45.5c3.3,3,7.2,5.5,11.5,7.3c-0.9,6.7-3.4,13.5-7.5,20.1
		c0.4-13-5-24-14.6-29.5c-2.4-1.4-4.9-2.3-7.6-2.9C37.7,32.7,40.3,24.5,45.1,16.7z M44.5,44.1c9.6,5.5,14.8,16.6,14.2,29.7
		c-10.7-4.1-18-12.4-20.5-23.3c-0.7-3-1-6.1-0.9-9.2C39.9,41.9,42.3,42.8,44.5,44.1z M10.9,47.3c6.4-4.3,13.4-6.6,20.2-6.6
		c1.9,0,3.7,0.2,5.4,0.5c-0.1,3.3,0.2,6.5,0.9,9.6c1.7,7.6,5.7,13.9,11.5,18.5c-3.8-1.5-7.7-2.3-11.8-2.3c-3.3,0-6.7,0.5-10,1.5
		c-3,0.9-6,2.3-8.8,4C12.9,66.3,10.2,57.3,10.9,47.3z M57.8,75.3c-6.2,4-12.9,6.1-19.4,6.1c-4.9,0-9.4-1.2-13.4-3.5
		c-2.3-1.3-4.3-2.9-6.1-4.8c2.7-1.6,5.5-2.9,8.4-3.8c3.2-1,6.5-1.5,9.8-1.5C44.6,67.8,51.7,70.4,57.8,75.3z M18.3,73.5
		c1.8,2,4,3.7,6.4,5.1c4.2,2.4,8.8,3.6,13.8,3.6c6.4,0,12.9-2,19-5.7c-3.4,6.4-7.7,11.7-12.7,15.7c-4-3.1-8.3-5.5-12.9-6.9
		c-3.3-1-6.7-1.5-10-1.5c-6.7,0-13.3,2.1-19,6.1C7,82.9,12.3,77.4,18.3,73.5z M1.2,92.8c0.2-0.4,0.4-0.8,0.6-1.1c6-4.6,12.9-7,20-7
		c3.2,0,6.5,0.5,9.8,1.5c4.5,1.4,8.7,3.7,12.5,6.7c-3.8,3-8.1,5.3-12.5,6.7c-3.2,1-6.5,1.5-9.7,1.5h0c-7.1,0-14-2.4-20-7
		C1.7,93.5,1.4,93.2,1.2,92.8z M2.8,95.6c5.8,4,12.3,6.1,19,6.1c0,0,0,0,0,0c3.3,0,6.7-0.5,10-1.5c4.6-1.4,9-3.8,12.9-6.9
		c4.9,4,9.2,9.4,12.7,15.7c-6.1-3.8-12.6-5.7-19-5.7c-5,0-9.7,1.2-13.8,3.6c-2.4,1.4-4.5,3.1-6.3,5.1C12.3,108.2,7,102.6,2.8,95.6z
		 M57.8,110.2c-6.1,5-13.3,7.6-20.7,7.6c-3.2,0-6.5-0.5-9.8-1.5c-2.9-0.9-5.8-2.2-8.4-3.8c1.8-1.9,3.8-3.5,6.1-4.8
		c4-2.3,8.6-3.5,13.4-3.5C45,104.1,51.6,106.2,57.8,110.2z M36.5,144.4c-1.8,0.3-3.6,0.5-5.4,0.5c0,0,0,0,0,0
		c-6.8,0-13.8-2.3-20.2-6.6c-0.7-10.1,2-19,7.5-25.3c2.8,1.7,5.7,3.1,8.8,4c3.3,1,6.7,1.5,10,1.5c4,0,8-0.8,11.8-2.3
		c-5.8,4.6-9.8,10.9-11.5,18.5C36.7,137.9,36.4,141.1,36.5,144.4z M38.2,135c2.5-10.9,9.7-19.2,20.5-23.3
		c0.7,13.1-4.6,24.2-14.2,29.7c-2.3,1.3-4.7,2.2-7.2,2.8C37.3,141.1,37.5,138,38.2,135z M45.6,169.6c-5.1-8-7.9-16.4-8.2-24.5
		c2.7-0.6,5.2-1.6,7.6-2.9c9.6-5.5,15-16.5,14.6-29.5c4.1,6.6,6.6,13.4,7.5,20.1c-4.2,1.8-8,4.2-11.2,7.2
		C47.5,147.6,43.9,158.1,45.6,169.6z M56.4,140.4c3.1-2.8,6.7-5.2,10.7-6.9c0.5,4.4,0.3,8.8-0.7,12.9c-2.5,10.8-9.6,19-20.1,23.2
		C44.7,158.3,48.2,148,56.4,140.4z M49.4,170.1c-0.7,0-1.4,0-2.1-0.1c10.4-4.4,17.5-12.6,20-23.5c1-4.3,1.2-8.8,0.6-13.4
		c5.8-2.4,12.4-3.7,19.5-3.7c0.6,0,1.2,0,1.8,0c-11.5,6.2-18.2,16.3-18.2,27.4c0,2.8,0.4,5.4,1.2,8
		C65.6,168.3,57.8,170.1,49.4,170.1z M71.7,156.9c0-11.1,7-21.1,18.7-27.1c1.8,11.4-1.7,21.8-10,29.4c-2.2,2.1-4.8,3.9-7.5,5.4
		C72.1,162.1,71.7,159.5,71.7,156.9z M91.2,184.5c-9.1-4.4-15.5-11.3-18.1-19.1c2.9-1.6,5.5-3.4,7.8-5.6c5.7-5.3,9.2-11.9,10.3-19.2
		c1.1,7.3,4.6,13.9,10.3,19.2c2.3,2.2,5,4,7.8,5.6C106.7,173.2,100.3,180.1,91.2,184.5z M109.6,164.6c-2.8-1.5-5.3-3.3-7.5-5.4
		c-8.2-7.6-11.7-18-10-29.4c11.7,6,18.7,16.1,18.7,27.1C110.8,159.5,110.3,162.1,109.6,164.6z M133.1,170.1L133.1,170.1
		c-8.4,0-16.2-1.8-22.7-5.2c0.8-2.6,1.2-5.3,1.2-8c0-11.1-6.8-21.2-18.2-27.4c0.6,0,1.2,0,1.8,0c6.9,0,13.4,1.2,19.2,3.5
		c-0.5,4.6-0.3,9.1,0.6,13.4c2.5,11,9.7,19.3,20.4,23.7C134.5,170.1,133.8,170.1,133.1,170.1z M136.1,169.6
		c-10.7-4.2-17.9-12.4-20.4-23.3c-0.9-4.2-1.2-8.5-0.7-12.9c4.2,1.8,7.9,4.2,11.1,7.1C134.2,148,137.7,158.3,136.1,169.6z
		 M137,168.6c1.3-11.1-2.3-21.3-10.4-28.8c-3.3-3-7.2-5.5-11.5-7.3c0.9-6.7,3.4-13.5,7.5-20.1c-0.4,13,5,24,14.6,29.5
		c2.4,1.4,4.9,2.3,7.6,2.9C144.4,152.7,141.8,160.9,137,168.6z M137.6,141.2c-9.6-5.5-14.8-16.6-14.2-29.7
		c10.7,4.1,18,12.4,20.5,23.3c0.7,3,1,6.1,0.9,9.2C142.3,143.5,139.8,142.5,137.6,141.2z M171.2,138.1c-6.4,4.3-13.4,6.6-20.2,6.6h0
		c-1.9,0-3.7-0.2-5.4-0.5c0.1-3.3-0.2-6.5-0.9-9.6c-1.7-7.6-5.7-13.9-11.5-18.5c3.8,1.5,7.7,2.3,11.8,2.3c0,0,0,0,0,0
		c3.3,0,6.7-0.5,10-1.5c3-0.9,6-2.3,8.8-4C169.2,119.1,171.9,128,171.2,138.1z M124.3,110c6.2-4,12.9-6.1,19.4-6.1
		c4.9,0,9.4,1.2,13.4,3.5c2.3,1.3,4.3,2.9,6.1,4.8c-2.7,1.6-5.5,2.9-8.4,3.8c-3.2,1-6.5,1.5-9.8,1.5
		C137.6,117.6,130.4,115,124.3,110z M163.8,111.8c-1.8-2-4-3.7-6.4-5.1c-4.2-2.4-8.8-3.6-13.8-3.6c-6.4,0-12.9,2-19,5.7
		c3.4-6.4,7.7-11.7,12.7-15.7c4,3.1,8.3,5.5,12.9,6.9c3.3,1,6.7,1.5,10,1.5c6.7,0,13.3-2.1,19-6.1
		C175.1,102.4,169.9,108,163.8,111.8z M180.3,93.7c-6,4.6-12.9,7-20,7c-3.2,0-6.5-0.5-9.8-1.5c-4.5-1.4-8.7-3.7-12.5-6.7
		c3.8-3,8.1-5.3,12.5-6.7c3.2-1,6.5-1.5,9.8-1.5c7.1,0,14,2.4,20,7c0.2,0.4,0.4,0.8,0.6,1.1C180.7,93,180.5,93.4,180.3,93.7z"/>
	<g>
		<g>
			<path class="st1" d="M27.4,194.9c0.5-0.2,0.9-0.4,1.2-0.8c0.3-0.3,0.4-0.7,0.4-1.2c0-0.4-0.1-0.7-0.2-1c-0.2-0.3-0.4-0.6-0.7-0.8
				c-0.3-0.2-0.7-0.4-1.2-0.5c-0.5-0.1-1.1-0.2-1.7-0.2h-4.4v9.2h4.8c1.4,0,2.4-0.2,3.1-0.7c0.6-0.5,1-1.1,1-1.9
				c0-0.6-0.2-1.1-0.6-1.5C28.6,195.3,28.1,195.1,27.4,194.9z M22.5,191.5h2.5c0.6,0,1.1,0.1,1.4,0.4c0.3,0.2,0.5,0.6,0.5,1.1
				c0,1-0.6,1.6-1.9,1.6h-2.5V191.5z M27,198.3c-0.3,0.3-0.9,0.4-1.5,0.4h-2.9v-3.2h2.9c0.7,0,1.2,0.1,1.5,0.4
				c0.3,0.3,0.5,0.7,0.5,1.2C27.5,197.7,27.3,198.1,27,198.3z"/>
			<polygon class="st1" points="36.9,190.5 35,190.5 35,199.7 42.5,199.7 42.5,198.7 36.9,198.7 			"/>
			<path class="st1" d="M54.5,196c0,0.5-0.1,1-0.2,1.4c-0.1,0.4-0.3,0.7-0.6,1c-0.2,0.2-0.5,0.4-0.9,0.5c-0.3,0.1-0.7,0.2-1.2,0.2
				c-0.4,0-0.8-0.1-1.2-0.2c-0.3-0.1-0.6-0.3-0.9-0.5c-0.2-0.2-0.4-0.6-0.6-1c-0.1-0.4-0.2-0.9-0.2-1.4v-5.4H47v5.4
				c0,1.3,0.4,2.3,1.2,3c0.8,0.7,2,1,3.5,1c1.5,0,2.7-0.3,3.5-1c0.8-0.7,1.2-1.7,1.2-3v-5.4h-1.9V196z"/>
			<polygon class="st1" points="68.5,198.4 68.3,198.4 64.9,190.5 62.1,190.5 62.1,199.7 64,199.7 64,192.4 64.2,192.4 67.3,199.7 
				69.5,199.7 72.7,192.4 72.8,192.4 72.8,199.7 74.7,199.7 74.7,190.5 71.9,190.5 			"/>
			<polygon class="st1" points="80.4,199.7 88.4,199.7 88.4,198.7 82.3,198.7 82.3,195.5 87.1,195.5 87.1,194.5 82.3,194.5 
				82.3,191.5 88.4,191.5 88.4,190.5 80.4,190.5 			"/>
			<polygon class="st1" points="101.2,198 101,198 96.1,190.5 93.6,190.5 93.6,199.7 95.5,199.7 95.5,192.2 95.7,192.2 100.6,199.7 
				103.1,199.7 103.1,190.5 101.2,190.5 			"/>
			<polygon class="st1" points="116.1,194.7 110.7,194.7 110.7,190.5 108.8,190.5 108.8,199.7 110.7,199.7 110.7,195.7 116.1,195.7 
				116.1,199.7 118,199.7 118,190.5 116.1,190.5 			"/>
			<path class="st1" d="M126.7,190.5l-3.7,9.2h1.9l0.9-2.2h5l0.9,2.2h1.9l-3.7-9.2H126.7z M126.1,196.5l2-4.8h0.1l2,4.8H126.1z"/>
			<path class="st1" d="M145.4,196c0,0.5-0.1,1-0.2,1.4c-0.1,0.4-0.3,0.7-0.6,1c-0.2,0.2-0.5,0.4-0.9,0.5c-0.3,0.1-0.7,0.2-1.2,0.2
				c-0.4,0-0.8-0.1-1.2-0.2c-0.3-0.1-0.6-0.3-0.9-0.5c-0.2-0.2-0.4-0.6-0.6-1c-0.1-0.4-0.2-0.9-0.2-1.4v-5.4h-1.9v5.4
				c0,1.3,0.4,2.3,1.2,3c0.8,0.7,2,1,3.5,1c1.5,0,2.7-0.3,3.5-1c0.8-0.7,1.2-1.7,1.2-3v-5.4h-1.9V196z"/>
			<path class="st1" d="M160.8,195.7c-0.5-0.4-1.1-0.7-1.9-1l-2.5-0.8c-0.3-0.1-0.6-0.2-0.9-0.3c-0.2-0.1-0.4-0.2-0.6-0.3
				c-0.1-0.1-0.2-0.2-0.3-0.4c-0.1-0.1-0.1-0.3-0.1-0.5c0-0.3,0.2-0.6,0.5-0.8c0.3-0.2,0.8-0.3,1.5-0.3c0.8,0,1.5,0.1,2.1,0.3
				c0.6,0.2,1.2,0.5,1.7,1l0.7-0.8c-0.2-0.2-0.5-0.4-0.9-0.6c-0.3-0.2-0.7-0.3-1.1-0.5c-0.4-0.1-0.8-0.2-1.2-0.3
				c-0.4-0.1-0.8-0.1-1.3-0.1c-0.7,0-1.3,0.1-1.8,0.2c-0.5,0.1-0.9,0.3-1.2,0.5c-0.3,0.2-0.6,0.5-0.7,0.8c-0.2,0.3-0.2,0.6-0.2,0.9
				c0,0.6,0.2,1.1,0.6,1.5c0.4,0.4,1,0.7,1.9,1l2.5,0.8c0.7,0.2,1.2,0.4,1.5,0.7s0.4,0.5,0.4,0.8c0,0.4-0.2,0.8-0.5,1
				c-0.4,0.2-1,0.4-1.9,0.4c-0.8,0-1.5-0.1-2.2-0.3c-0.7-0.2-1.2-0.5-1.7-1l-0.7,0.8c0.2,0.2,0.5,0.4,0.9,0.6
				c0.3,0.2,0.7,0.3,1.1,0.5c0.4,0.1,0.8,0.2,1.3,0.3c0.4,0.1,0.9,0.1,1.4,0.1c0.8,0,1.5-0.1,2.1-0.2c0.6-0.1,1-0.3,1.4-0.6
				c0.4-0.2,0.6-0.5,0.8-0.9c0.2-0.3,0.2-0.7,0.2-1.1C161.5,196.6,161.3,196.1,160.8,195.7z"/>
		</g>
		<g>
			<polygon class="st1" points="85.6,174.5 86.8,174.5 86.8,177.3 87.5,177.3 87.5,174.5 88.7,174.5 88.7,174.1 85.6,174.1 			"/>
			<polygon class="st1" points="92,175.6 90.2,175.6 90.2,174.1 89.5,174.1 89.5,177.3 90.2,177.3 90.2,175.9 92,175.9 92,177.3 
				92.7,177.3 92.7,174.1 92,174.1 			"/>
			<polygon class="st1" points="96.6,174.5 96.6,174.1 93.8,174.1 93.8,177.3 96.6,177.3 96.6,177 94.4,177 94.4,175.8 96.1,175.8 
				96.1,175.5 94.4,175.5 94.4,174.5 			"/>
		</g>
	</g>
	<rect x="85.6" y="210.1" class="st0" width="11" height="2.5"/>
</g>
</svg>
