<?xml version="1.0" encoding="utf-8"?>
<!-- Generator: Adobe Illustrator 19.2.1, SVG Export Plug-In . SVG Version: 6.00 Build 0)  -->
<svg version="1.1" id="Слой_1" xmlns="http://www.w3.org/2000/svg" xmlns:xlink="http://www.w3.org/1999/xlink" x="0px" y="0px"
	 viewBox="0 0 240.8 60.1" style="enable-background:new 0 0 240.8 60.1;" xml:space="preserve">
<style type="text/css">
	.st0{fill:#FFFFFF;}
	.st1{fill:#E5BF92;}
</style>
<g>
	<path class="st0" d="M11.6,30c0.9-0.3,1.6-0.7,2-1.3c0.4-0.6,0.7-1.3,0.7-2.1c0-0.6-0.1-1.2-0.4-1.7c-0.3-0.5-0.7-0.9-1.2-1.3
		c-0.6-0.4-1.2-0.6-2.1-0.8c-0.8-0.2-1.8-0.3-3-0.3H0v15.6h8.3c2.4,0,4.2-0.4,5.3-1.2c1.1-0.8,1.7-1.8,1.7-3.2c0-1-0.3-1.8-1-2.5
		C13.6,30.7,12.7,30.3,11.6,30z M3.2,24.2h4.4c1.1,0,1.9,0.2,2.4,0.6c0.5,0.4,0.8,1,0.8,1.8c0,1.8-1.1,2.7-3.2,2.7H3.2V24.2z
		 M10.8,35.8c-0.6,0.4-1.5,0.7-2.6,0.7h-5V31h5c1.1,0,2,0.2,2.6,0.7c0.6,0.5,0.9,1.2,0.9,2.1C11.7,34.7,11.4,35.4,10.8,35.8z"/>
	<polygon class="st0" points="27.8,22.5 24.6,22.5 24.6,38.2 37.4,38.2 37.4,36.5 27.8,36.5 	"/>
	<path class="st0" d="M57.9,31.8c0,0.9-0.1,1.7-0.3,2.4c-0.2,0.7-0.6,1.2-1,1.6c-0.4,0.4-0.9,0.7-1.5,0.9c-0.6,0.2-1.2,0.3-2,0.3
		c-0.7,0-1.4-0.1-2-0.3c-0.6-0.2-1.1-0.5-1.5-0.9c-0.4-0.4-0.7-1-1-1.6c-0.2-0.7-0.3-1.5-0.3-2.4v-9.3H45v9.3c0,2.3,0.7,4,2.1,5.1
		c1.4,1.1,3.4,1.7,6,1.7c2.6,0,4.5-0.6,5.9-1.7c1.4-1.1,2.1-2.8,2.1-5.1v-9.3h-3.2V31.8z"/>
	<polygon class="st0" points="81.8,36 81.6,36 75.8,22.5 71,22.5 71,38.2 74.2,38.2 74.2,25.7 74.4,25.7 79.8,38.2 83.6,38.2 
		89,25.7 89.2,25.7 89.2,38.2 92.4,38.2 92.4,22.5 87.6,22.5 	"/>
	<polygon class="st0" points="102.3,38.2 115.9,38.2 115.9,36.5 105.5,36.5 105.5,31 113.7,31 113.7,29.4 105.5,29.4 105.5,24.2 
		115.9,24.2 115.9,22.5 102.3,22.5 	"/>
	<polygon class="st0" points="137.7,35.3 137.5,35.3 129.1,22.5 124.8,22.5 124.8,38.2 128.1,38.2 128.1,25.5 128.3,25.5 
		136.7,38.2 140.9,38.2 140.9,22.5 137.7,22.5 	"/>
	<polygon class="st0" points="163.2,29.7 154,29.7 154,22.5 150.8,22.5 150.8,38.2 154,38.2 154,31.4 163.2,31.4 163.2,38.2 
		166.4,38.2 166.4,22.5 163.2,22.5 	"/>
	<path class="st0" d="M181.3,22.5l-6.4,15.6h3.2l1.5-3.8h8.5l1.5,3.8h3.2l-6.4-15.6H181.3z M180.4,32.7l3.4-8.3h0.2l3.4,8.3H180.4z"
		/>
	<path class="st0" d="M213.2,31.8c0,0.9-0.1,1.7-0.3,2.4c-0.2,0.7-0.6,1.2-1,1.6c-0.4,0.4-0.9,0.7-1.5,0.9c-0.6,0.2-1.2,0.3-2,0.3
		c-0.7,0-1.4-0.1-2-0.3c-0.6-0.2-1.1-0.5-1.5-0.9c-0.4-0.4-0.7-1-1-1.6c-0.2-0.7-0.3-1.5-0.3-2.4v-9.3h-3.2v9.3c0,2.3,0.7,4,2.1,5.1
		c1.4,1.1,3.4,1.7,6,1.7c2.6,0,4.5-0.6,5.9-1.7c1.4-1.1,2.1-2.8,2.1-5.1v-9.3h-3.2V31.8z"/>
	<path class="st0" d="M239.7,31.4c-0.8-0.7-1.8-1.3-3.2-1.7l-4.2-1.3c-0.6-0.2-1.1-0.4-1.5-0.5c-0.4-0.2-0.7-0.4-1-0.6
		c-0.2-0.2-0.4-0.4-0.5-0.6c-0.1-0.2-0.2-0.5-0.2-0.8c0-0.6,0.3-1,0.8-1.4c0.6-0.4,1.4-0.6,2.5-0.6c1.4,0,2.6,0.2,3.6,0.6
		c1.1,0.4,2,0.9,2.9,1.7l1.1-1.3c-0.4-0.4-0.9-0.7-1.5-1.1c-0.6-0.3-1.2-0.6-1.9-0.8c-0.7-0.2-1.4-0.4-2.1-0.5
		c-0.7-0.1-1.4-0.2-2.2-0.2c-1.2,0-2.2,0.1-3.1,0.3c-0.9,0.2-1.6,0.5-2.1,0.9c-0.6,0.4-1,0.8-1.2,1.4c-0.3,0.5-0.4,1-0.4,1.6
		c0,1.1,0.4,2,1.1,2.6c0.7,0.7,1.8,1.3,3.2,1.7l4.2,1.3c1.2,0.4,2,0.8,2.5,1.1c0.5,0.4,0.7,0.9,0.7,1.4c0,0.7-0.3,1.3-0.9,1.7
		c-0.6,0.4-1.7,0.6-3.2,0.6c-1.4,0-2.6-0.2-3.7-0.6c-1.1-0.4-2.1-0.9-3-1.7l-1.1,1.3c0.4,0.4,0.9,0.7,1.5,1.1
		c0.6,0.3,1.2,0.6,1.9,0.8c0.7,0.2,1.4,0.4,2.1,0.5c0.8,0.1,1.5,0.2,2.3,0.2c1.4,0,2.6-0.1,3.5-0.4c1-0.2,1.7-0.6,2.3-1
		c0.6-0.4,1-0.9,1.3-1.5c0.3-0.6,0.4-1.2,0.4-1.8C240.8,33,240.5,32.1,239.7,31.4z"/>
</g>
<g>
	<polygon class="st1" points="111,0.6 113.1,0.6 113.1,5.4 114.3,5.4 114.3,0.6 116.4,0.6 116.4,0 111,0 	"/>
	<polygon class="st1" points="122.1,2.5 118.9,2.5 118.9,0 117.8,0 117.8,5.4 118.9,5.4 118.9,3.1 122.1,3.1 122.1,5.4 123.2,5.4 
		123.2,0 122.1,0 	"/>
	<polygon class="st1" points="129.8,0.6 129.8,0 125.1,0 125.1,5.4 129.8,5.4 129.8,4.9 126.2,4.9 126.2,3 129,3 129,2.4 126.2,2.4 
		126.2,0.6 	"/>
</g>
<rect x="111" y="55.9" class="st1" width="18.8" height="4.2"/>
</svg>
