<?xml version="1.0" encoding="utf-8"?>
<!-- Generator: Adobe Illustrator 19.2.1, SVG Export Plug-In . SVG Version: 6.00 Build 0)  -->
<svg version="1.1" id="Слой_1" xmlns="http://www.w3.org/2000/svg" xmlns:xlink="http://www.w3.org/1999/xlink" x="0px" y="0px"
	 viewBox="0 0 178.7 181.9" style="enable-background:new 0 0 178.7 181.9;" xml:space="preserve">
<style type="text/css">
	.st0{fill:#FFFFFF;}
</style>
<path class="st0" d="M178.4,90.9c0.1-0.1,0.1-0.3,0.2-0.4l0.1-0.3l-0.2-0.2c-0.3-0.3-0.6-0.5-1-0.8c-4.2-7.6-9.8-13.7-16.2-17.8
	c5.5-6.3,8.2-15.3,7.5-25.5l0-0.2l-0.2-0.1c-6.5-4.4-13.5-6.8-20.4-6.8c-1.8,0-3.6,0.2-5.4,0.5c-0.4-8.2-3.3-16.8-8.6-24.9l-0.2-0.3
	l-0.3,0.1c0,0,0,0,0,0l0-0.1l-0.3,0c-1.1-0.1-2.2-0.1-3.3-0.1c-8.3,0-16.1,1.8-22.6,5.1C105,11.4,98.5,4.5,89.4,0.1L89.2,0L89,0.1
	c-9.2,4.4-15.6,11.3-18.3,19.2c-6.5-3.3-14.2-5.1-22.6-5.1c-1.1,0-2.2,0-3.3,0.1l-0.3,0l0,0.3l-0.1,0.2c-5.3,8.1-8.2,16.6-8.6,24.9
	c-1.7-0.3-3.5-0.5-5.4-0.5c-6.9,0-13.9,2.3-20.4,6.8L10,45.9l0,0.2c-0.8,10.1,2,19.1,7.5,25.5C11,75.7,5.5,81.8,1.2,89.4
	c-0.3,0.3-0.7,0.5-1,0.8L0,90.4l0.1,0.3c0.1,0.1,0.1,0.3,0.2,0.4c-0.1,0.1-0.1,0.3-0.2,0.4L0,91.7c0,0,0.9,0.7,1.2,1
	c4.2,7.6,9.8,13.7,16.2,17.8c-5.5,6.3-8.2,15.3-7.5,25.5l0,0.2l0.2,0.1c6.5,4.4,13.5,6.8,20.4,6.8h0c1.8,0,3.6-0.2,5.4-0.5
	c0.4,8.2,3.3,16.8,8.6,24.9l0.2,0.3l0.3-0.1c0,0,0,0,0,0l0,0.1l0.3,0c1.1,0.1,2.2,0.1,3.3,0.1c8.3,0,16.1-1.8,22.6-5.1
	c2.7,7.9,9.1,14.8,18.3,19.2l0.2,0.1l0.2-0.1c9.2-4.4,15.6-11.3,18.3-19.2c6.5,3.3,14.2,5.1,22.6,5.1c0,0,0,0,0,0
	c1.1,0,2.2,0,3.2-0.1l0.3,0l0-0.3l0.1-0.2c5.3-8.1,8.2-16.6,8.6-24.9c1.7,0.3,3.5,0.5,5.4,0.5c0,0,0,0,0,0c6.9,0,13.9-2.3,20.4-6.8
	l0.2-0.1l0-0.2c0.8-10.1-2-19.1-7.5-25.5c6.4-4.1,11.9-10.2,16.2-17.8c0.3-0.3,0.7-0.5,1-0.8l0.2-0.2l-0.1-0.3
	C178.5,91.1,178.4,91,178.4,90.9z M175.9,88.1c-5.7-3.9-12.1-6-18.7-6c-3.3,0-6.6,0.5-9.8,1.5c-4.5,1.4-8.8,3.7-12.7,6.8
	c-4.8-4-9.1-9.2-12.4-15.4c6,3.7,12.4,5.6,18.7,5.6c0,0,0,0,0,0c4.9,0,9.5-1.2,13.6-3.6c2.3-1.4,4.4-3,6.2-5
	C166.7,75.8,171.8,81.2,175.9,88.1z M106.7,61.6c1.9,3.1,3,6.3,3.1,9.4c-1,0.2-2,0.6-2.9,1.1c-3.7,2.1-5.7,6.3-5.6,11.3
	c-1.6-2.5-2.5-5.1-2.9-7.7c1.6-0.7,3-1.6,4.3-2.7C106,70,107.4,66,106.7,61.6z M102.9,109c-1.2-1.2-2.7-2.1-4.4-2.8
	c0.3-2.6,1.3-5.2,2.9-7.7c-0.1,5,1.9,9.1,5.6,11.3c0.9,0.5,1.9,0.9,2.9,1.1c-0.1,3-1.1,6.1-3,9.1C107.4,115.7,106,111.8,102.9,109z
	 M72,120.3c-1.9-3.1-3-6.3-3.1-9.4c1-0.2,2-0.6,2.9-1.1c3.7-2.1,5.7-6.3,5.6-11.3c1.6,2.5,2.5,5.1,2.9,7.7c-1.6,0.7-3,1.6-4.3,2.7
	C72.7,111.9,71.4,115.9,72,120.3z M75.8,72.9c1.2,1.2,2.7,2.1,4.4,2.8c-0.3,2.6-1.3,5.2-2.9,7.7c0.1-5-1.9-9.1-5.6-11.3
	c-0.9-0.5-1.9-0.9-2.9-1.1c0.1-3,1.1-6.1,3-9.1C71.3,66.2,72.7,70.1,75.8,72.9z M81.5,66.4c0,4.2,2.6,8.1,7,10.4
	c-2.9,0.1-5.6-0.4-8-1.3c0.2-1.7,0.1-3.5-0.2-5.1c-1-4.2-3.7-7.4-7.8-9c3.5-0.1,6.8,0.6,9.5,2C81.7,64.4,81.5,65.4,81.5,66.4z
	 M82.3,63.5c1.1,0.6,2,1.3,2.9,2c3.1,2.9,4.5,6.9,3.8,11.2c-4.5-2.3-7.1-6.1-7.1-10.4C81.8,65.4,82,64.5,82.3,63.5z M80,70.5
	c0.4,1.6,0.4,3.2,0.3,4.9c-1.6-0.7-3-1.6-4.2-2.7c-3.1-2.9-4.5-6.8-3.8-11.1C76.3,63.2,79,66.3,80,70.5z M71.6,72.4
	c3.7,2.1,5.7,6.3,5.4,11.3c-4.1-1.6-6.9-4.7-7.8-8.9c-0.3-1.1-0.4-2.3-0.3-3.5C69.8,71.6,70.7,71.9,71.6,72.4z M68.9,74.9
	c0.7,2.9,2.2,5.3,4.4,7.1c-1.4-0.6-3-0.9-4.5-0.9c-1.3,0-2.6,0.2-3.8,0.6c-1.2,0.4-2.3,0.9-3.3,1.5c-2.1-2.4-3.1-5.8-2.9-9.6
	c2.5-1.7,5.1-2.5,7.7-2.5c0.7,0,1.4,0.1,2.1,0.2C68.5,72.5,68.6,73.7,68.9,74.9z M76.7,84.3c-2.4,1.5-4.9,2.3-7.4,2.3
	c-1.9,0-3.6-0.5-5.1-1.3c-0.9-0.5-1.6-1.1-2.3-1.8c1-0.6,2.1-1.1,3.2-1.5c1.2-0.4,2.5-0.6,3.7-0.6C71.6,81.4,74.3,82.4,76.7,84.3z
	 M64,85.6c1.6,0.9,3.4,1.4,5.3,1.4c2.4,0,4.9-0.8,7.3-2.2c-1.3,2.4-3,4.5-4.8,6c-1.5-1.2-3.2-2.1-4.9-2.6c-1.3-0.4-2.5-0.6-3.8-0.6
	c-2.6,0-5.1,0.8-7.3,2.3c1.6-2.7,3.6-4.8,5.9-6.3C62.3,84.4,63.1,85.1,64,85.6z M63,87.9c1.2,0,2.5,0.2,3.7,0.6
	c1.7,0.5,3.3,1.4,4.8,2.5c-1.5,1.2-3.1,2-4.8,2.5c-1.2,0.4-2.5,0.6-3.7,0.6h0c-2.7,0-5.4-0.9-7.6-2.7c-0.1-0.1-0.2-0.3-0.2-0.4
	c0.1-0.1,0.1-0.3,0.2-0.4C57.6,88.8,60.2,87.9,63,87.9z M63,94.4L63,94.4c1.3,0,2.6-0.2,3.8-0.6c1.8-0.5,3.4-1.4,4.9-2.6
	c1.9,1.5,3.5,3.6,4.8,6c-2.3-1.4-4.8-2.2-7.3-2.2c-1.9,0-3.7,0.5-5.3,1.4c-0.9,0.5-1.7,1.2-2.4,1.9c-2.3-1.5-4.3-3.6-5.9-6.3
	C57.9,93.6,60.4,94.4,63,94.4z M76.7,97.6c-2.3,1.9-5.1,2.9-7.9,2.9c-1.2,0-2.5-0.2-3.7-0.6c-1.1-0.3-2.2-0.8-3.2-1.5
	c0.7-0.7,1.4-1.3,2.3-1.8c1.5-0.9,3.3-1.3,5.1-1.3C71.8,95.3,74.3,96.1,76.7,97.6z M61.6,98.7c1.1,0.7,2.2,1.2,3.3,1.5
	c1.3,0.4,2.5,0.6,3.8,0.6c1.6,0,3.1-0.3,4.5-0.9c-2.2,1.8-3.7,4.2-4.4,7.1c-0.3,1.2-0.4,2.4-0.3,3.6c-0.7,0.1-1.4,0.2-2.1,0.2h0
	c-2.6,0-5.3-0.9-7.7-2.5C58.5,104.5,59.5,101.1,61.6,98.7z M69.2,107.1c0.9-4.2,3.7-7.3,7.8-8.9c0.2,5-1.7,9.2-5.4,11.3
	c-0.9,0.5-1.8,0.8-2.8,1.1C68.8,109.4,68.9,108.2,69.2,107.1z M76.1,109.2c1.2-1.1,2.6-2,4.1-2.6c0.2,1.7,0.1,3.3-0.3,4.9
	c-0.9,4.1-3.7,7.2-7.7,8.8C71.7,116,73,112.1,76.1,109.2z M80.3,111.5c0.4-1.6,0.5-3.4,0.2-5.1c2.2-0.9,4.7-1.4,7.4-1.4
	c0.2,0,0.4,0,0.7,0c-4.4,2.4-7,6.2-7,10.5c0,1,0.2,2.1,0.5,3.1c-2.5,1.3-5.5,2-8.7,2c-0.3,0-0.5,0-0.8,0
	C76.6,118.8,79.3,115.7,80.3,111.5z M82,115.5c0-4.2,2.7-8.1,7.1-10.4c0.7,4.3-0.7,8.3-3.8,11.2c-0.9,0.8-1.8,1.5-2.9,2
	C82.1,117.4,82,116.5,82,115.5z M89.2,104.7c-0.4,0-0.8,0-1.2,0c-2.7,0-5.3,0.5-7.5,1.4c-0.4-2.7-1.4-5.5-3.2-8.2c0-0.1,0-0.1,0-0.2
	l0-0.1l-0.1,0c-0.1,0-0.1-0.1-0.2-0.1c-1.4-2.7-3.1-4.9-5.1-6.5c2-1.7,3.8-3.9,5.1-6.5c0.1,0,0.2-0.3,0.2-0.4
	c1.7-2.7,2.8-5.5,3.2-8.2c2.2,0.9,4.7,1.4,7.4,1.4c0.4,0,0.8,0,1.2,0c0.1,0,0.1,0.1,0.2,0.1l0.1,0l0.1,0c0.1,0,0.1-0.1,0.2-0.1
	c0.4,0,0.8,0,1.2,0c2.7,0,5.3-0.5,7.5-1.4c0.4,2.7,1.4,5.5,3.2,8.2c0,0.1,0,0.1,0,0.2l0,0.1l0.1,0c0.1,0,0.1,0.1,0.2,0.1
	c1.4,2.7,3.1,4.9,5.1,6.5c-2,1.7-3.8,3.9-5.1,6.5c-0.1,0-0.1,0.1-0.2,0.1l-0.1,0l0,0.1c0,0.1,0,0.1,0,0.2c-1.7,2.7-2.8,5.5-3.2,8.2
	c-2.2-0.9-4.7-1.4-7.4-1.4c-0.4,0-0.8,0-1.2,0c-0.1,0-0.1-0.1-0.2-0.1l-0.1,0l-0.1,0C89.3,104.7,89.2,104.7,89.2,104.7z M89.8,105.1
	c4.5,2.3,7.1,6.1,7.1,10.4c0,1-0.2,2-0.4,2.9c-1.1-0.6-2-1.2-2.9-2C90.4,113.4,89.1,109.5,89.8,105.1z M97.2,115.5
	c0-4.2-2.6-8.1-6.9-10.4c2.9-0.1,5.6,0.4,8,1.3c-0.2,1.7-0.1,3.5,0.2,5.1c1,4.2,3.7,7.4,7.8,9c-0.3,0-0.6,0-0.8,0
	c-3.2,0-6.2-0.7-8.7-2C97,117.5,97.2,116.5,97.2,115.5z M98.7,111.4c-0.4-1.6-0.4-3.2-0.3-4.9c1.6,0.7,3,1.6,4.2,2.7
	c3.1,2.9,4.5,6.8,3.8,11.1C102.5,118.7,99.7,115.6,98.7,111.4z M107.1,109.5c-3.7-2.1-5.7-6.3-5.4-11.3c4.1,1.6,6.9,4.7,7.8,8.9
	c0.3,1.1,0.4,2.3,0.3,3.5C108.9,110.3,108,110,107.1,109.5z M109.8,107c-0.7-2.9-2.2-5.3-4.4-7.1c1.4,0.6,3,0.9,4.5,0.9
	c1.3,0,2.6-0.2,3.8-0.6c1.2-0.4,2.3-0.9,3.3-1.5c2.1,2.4,3.1,5.8,2.9,9.6c-2.5,1.7-5.1,2.5-7.7,2.5c-0.7,0-1.4-0.1-2.1-0.2
	C110.2,109.4,110.1,108.2,109.8,107z M102,97.6c2.4-1.5,4.9-2.3,7.4-2.3c1.9,0,3.6,0.5,5.1,1.3c0.9,0.5,1.6,1.1,2.3,1.8
	c-1,0.6-2.1,1.1-3.2,1.5c-1.2,0.4-2.5,0.6-3.7,0.6C107.1,100.5,104.4,99.5,102,97.6z M114.7,96.3c-1.6-0.9-3.4-1.4-5.3-1.4
	c-2.4,0-4.9,0.8-7.3,2.2c1.3-2.4,3-4.5,4.8-6c1.5,1.2,3.2,2.1,4.9,2.6c1.3,0.4,2.5,0.6,3.8,0.6c2.6,0,5.1-0.8,7.3-2.3
	c-1.6,2.7-3.6,4.8-5.9,6.3C116.4,97.5,115.6,96.8,114.7,96.3z M115.8,94c-1.2,0-2.5-0.2-3.7-0.6c-1.7-0.5-3.3-1.4-4.8-2.5
	c1.5-1.2,3.1-2,4.8-2.5c1.2-0.4,2.5-0.6,3.7-0.6c2.7,0,5.4,0.9,7.7,2.7c0.1,0.1,0.2,0.3,0.2,0.4c-0.1,0.1-0.1,0.3-0.2,0.4
	C121.1,93.1,118.5,94,115.8,94z M115.8,87.5c-1.3,0-2.6,0.2-3.8,0.6c-1.8,0.5-3.4,1.4-4.9,2.6c-1.9-1.5-3.5-3.6-4.8-6
	c2.3,1.4,4.8,2.2,7.3,2.2h0c1.9,0,3.7-0.5,5.3-1.4c0.9-0.5,1.7-1.2,2.4-1.9c2.3,1.5,4.3,3.6,5.9,6.3
	C120.8,88.3,118.3,87.5,115.8,87.5z M102,84.3c2.3-1.9,5.1-2.9,7.9-2.9c1.2,0,2.5,0.2,3.7,0.6c1.1,0.3,2.2,0.8,3.2,1.5
	c-0.7,0.7-1.4,1.3-2.3,1.8c-1.5,0.9-3.3,1.3-5.1,1.3h0C107,86.6,104.4,85.8,102,84.3z M117.1,83.2c-1.1-0.7-2.2-1.2-3.3-1.5
	c-1.3-0.4-2.5-0.6-3.8-0.6c-1.6,0-3.1,0.3-4.5,0.9c2.2-1.8,3.7-4.2,4.4-7.1c0.3-1.2,0.4-2.4,0.3-3.6c0.7-0.1,1.4-0.2,2.1-0.2
	c2.6,0,5.3,0.9,7.7,2.5C120.2,77.4,119.2,80.8,117.1,83.2z M109.5,74.8c-0.9,4.2-3.7,7.3-7.8,8.9c-0.2-5,1.7-9.2,5.4-11.3
	c0.9-0.5,1.8-0.8,2.8-1.1C109.9,72.5,109.8,73.7,109.5,74.8z M102.6,72.7c-1.2,1.1-2.6,2-4.1,2.6c-0.2-1.7-0.1-3.3,0.3-4.9
	c0.9-4.1,3.7-7.2,7.7-8.8C107,65.9,105.7,69.8,102.6,72.7z M98.4,70.4c-0.4,1.6-0.5,3.4-0.2,5.1c-2.2,0.9-4.7,1.4-7.4,1.4
	c-0.2,0-0.4,0-0.7,0c4.4-2.4,7-6.2,7-10.5c0-1-0.2-2.1-0.5-3.1c2.5-1.3,5.5-2,8.7-2c0.3,0,0.5,0,0.8,0
	C102.1,63.1,99.4,66.2,98.4,70.4z M96.7,66.4c0,4.2-2.7,8.1-7.1,10.4c-0.7-4.3,0.7-8.3,3.8-11.2c0.9-0.8,1.8-1.5,2.9-2
	C96.6,64.5,96.7,65.4,96.7,66.4z M93.2,65.3c-2.2,2-3.5,4.5-3.9,7.3c-0.4-2.8-1.7-5.3-3.9-7.3c-0.9-0.8-1.9-1.5-3-2.1
	c1-3,3.4-5.6,6.9-7.3c3.5,1.7,5.9,4.3,6.9,7.3C95.1,63.8,94.1,64.5,93.2,65.3z M82.1,63.1c-2.5-1.3-5.5-2-8.8-2c-0.4,0-0.8,0-1.3,0
	l-0.1,0l0,0.1l0,0.1c-2.1,3.1-3.2,6.5-3.3,9.7c-0.7-0.1-1.4-0.2-2.1-0.2c-2.7,0-5.4,0.9-7.9,2.6l-0.1,0l0,0.1
	c-0.3,3.9,0.8,7.4,2.9,9.9c-2.5,1.6-4.7,4-6.3,7c-0.1,0.1-0.2,0.2-0.4,0.3l-0.1,0.1l0.1,0.1c0,0.1,0.1,0.1,0.1,0.1
	c0,0-0.1,0.1-0.1,0.1l-0.1,0.1l0.1,0.1c0.1,0.1,0.2,0.2,0.4,0.3c1.7,3,3.8,5.4,6.3,7c-2.1,2.5-3.2,6-2.9,9.9l0,0.1l0.1,0
	c2.5,1.7,5.3,2.6,7.9,2.6h0c0.7,0,1.4-0.1,2.1-0.2c0.1,3.2,1.3,6.5,3.3,9.7l0.1,0.1l0.1,0c0,0,0,0,0,0l0,0.1l0.1,0
	c0.4,0,0.8,0,1.3,0c3.2,0,6.2-0.7,8.8-2c1,3,3.5,5.7,7,7.4c-0.1,0-0.2,0.1-0.3,0.1c-1.1-0.1-2.1-0.1-3.2-0.1c-7,0-13.5,1.2-19.3,3.6
	c-1-7-3.7-14.2-8.2-21c0-0.2,0-0.3,0-0.5l0-0.2l-0.2-0.1c-0.1-0.1-0.3-0.2-0.4-0.3c-3.5-6.8-8-12.5-13.1-16.8
	c5.2-4.3,9.7-10,13.1-16.8c0.1-0.1,0.3-0.2,0.4-0.3l0.2-0.1l0-0.2c0-0.2,0-0.3,0-0.5c4.4-6.8,7.2-14,8.2-21
	c5.7,2.3,12.1,3.5,18.9,3.5c0,0,0,0,0,0c1,0,2.1,0,3.2-0.1c0.1,0.1,0.3,0.1,0.4,0.2C85.5,57.5,83.1,60.1,82.1,63.1z M82.5,118.7
	c1.1-0.6,2.1-1.3,3-2.1c2.2-2,3.5-4.5,3.9-7.3c0.4,2.8,1.7,5.3,3.9,7.3c0.9,0.8,1.9,1.5,3,2.1c-1,3-3.4,5.6-6.9,7.3
	C85.9,124.3,83.5,121.7,82.5,118.7z M96.6,118.8c2.5,1.3,5.5,2,8.8,2c0.4,0,0.8,0,1.3,0l0.1,0l0-0.1l0-0.1c2.1-3.1,3.2-6.5,3.3-9.7
	c0.7,0.1,1.4,0.2,2.1,0.2c0,0,0,0,0,0c2.7,0,5.4-0.9,7.9-2.6l0.1,0l0-0.1c0.3-3.9-0.8-7.4-2.9-9.9c2.5-1.6,4.7-4,6.3-7
	c0.1-0.1,0.2-0.2,0.4-0.3l0.1-0.1l-0.1-0.1c0-0.1-0.1-0.1-0.1-0.1c0,0,0.1-0.1,0.1-0.1l0.1-0.1l-0.1-0.1c-0.1-0.1-0.2-0.2-0.4-0.3
	c-1.7-3-3.8-5.4-6.3-7c2.1-2.5,3.2-6,2.9-9.9l0-0.1l-0.1,0c-2.5-1.7-5.3-2.6-7.9-2.6c-0.7,0-1.4,0.1-2.1,0.2
	c-0.1-3.2-1.3-6.5-3.3-9.7l-0.1-0.1l-0.1,0c0,0,0,0,0,0l0-0.1l-0.1,0c-0.4,0-0.8,0-1.3,0c-3.2,0-6.2,0.7-8.8,2c-1-3-3.5-5.7-7-7.4
	c0.1,0,0.2-0.1,0.3-0.1c1.1,0.1,2.1,0.1,3.2,0.1c7,0,13.5-1.2,19.3-3.6c1,7,3.7,14.2,8.2,21c0,0.2,0,0.3,0,0.5l0,0.2l0.2,0.1
	c0.1,0.1,0.3,0.2,0.4,0.3c3.5,6.8,8,12.5,13.1,16.8c-5.2,4.3-9.7,10-13.1,16.8c-0.1,0.1-0.3,0.2-0.4,0.3l-0.2,0.1l0,0.2
	c0,0.2,0,0.3,0,0.5c-4.4,6.8-7.2,14-8.2,21c-5.7-2.3-12.1-3.5-18.9-3.5c-1,0-2.1,0-3.2,0.1c-0.1-0.1-0.3-0.1-0.4-0.2
	C93.2,124.4,95.6,121.8,96.6,118.8z M121.9,73.8c6-4.9,13-7.4,20.3-7.4c3.2,0,6.4,0.5,9.6,1.5c2.9,0.9,5.6,2.2,8.3,3.8
	c-1.7,1.9-3.7,3.5-5.9,4.7c-4,2.3-8.4,3.5-13.2,3.5C134.6,79.8,128,77.7,121.9,73.8z M142.9,40.2c1.7-0.3,3.5-0.5,5.3-0.5
	c6.7,0,13.5,2.3,19.8,6.5c0.7,9.9-2,18.7-7.4,24.8c-2.7-1.7-5.6-3-8.6-3.9c-3.2-1-6.5-1.5-9.8-1.5c-4,0-7.9,0.8-11.6,2.2
	c5.7-4.5,9.6-10.7,11.3-18.2C142.7,46.5,143,43.4,142.9,40.2z M141.2,49.4c-2.4,10.7-9.6,18.8-20.1,22.9
	c-0.6-12.9,4.5-23.7,13.9-29.2c2.2-1.3,4.6-2.2,7.1-2.8C142.2,43.5,141.9,46.5,141.2,49.4z M134,15.5c5,7.8,7.7,16.1,8.1,24.1
	c-2.6,0.6-5.1,1.5-7.4,2.9c-9.4,5.4-14.7,16.2-14.3,29c-4-6.4-6.5-13.1-7.3-19.7c4.1-1.8,7.8-4.1,10.9-7
	C132.1,37.1,135.6,26.8,134,15.5z M123.4,44.1c-3,2.8-6.6,5.1-10.5,6.8c-0.5-4.3-0.3-8.6,0.6-12.7c2.4-10.6,9.4-18.6,19.7-22.7
	C134.8,26.5,131.4,36.7,123.4,44.1z M130.2,14.9c0.7,0,1.4,0,2.1,0.1c-10.2,4.3-17.2,12.4-19.6,23.1c-1,4.2-1.2,8.7-0.6,13.2
	c-5.7,2.4-12.2,3.6-19.1,3.6c-0.6,0-1.2,0-1.7,0c11.2-6.1,17.9-16,17.9-26.9c0-2.7-0.4-5.3-1.2-7.9C114.3,16.7,122,14.9,130.2,14.9z
	 M108.3,27.9c0,10.8-6.8,20.7-18.3,26.6c-1.7-11.2,1.7-21.4,9.8-28.8c2.2-2,4.7-3.8,7.4-5.3C107.9,22.8,108.3,25.4,108.3,27.9z
	 M89.2,0.9c8.9,4.3,15.2,11.1,17.8,18.8c-2.8,1.5-5.4,3.4-7.7,5.5c-5.6,5.2-9,11.7-10.1,18.8c-1.1-7.2-4.5-13.7-10.1-18.8
	c-2.3-2.1-4.9-3.9-7.7-5.5C74,11.9,80.3,5.2,89.2,0.9z M71.2,20.4c2.7,1.5,5.2,3.2,7.4,5.3c8.1,7.5,11.5,17.7,9.8,28.8
	C76.9,48.6,70,38.8,70,27.9C70,25.4,70.4,22.8,71.2,20.4z M48.2,14.9c8.3,0,15.9,1.8,22.3,5.1c-0.8,2.5-1.2,5.2-1.2,7.9
	c0,10.9,6.7,20.8,17.9,26.9c-0.6,0-1.2,0-1.7,0h0c-6.8,0-13.2-1.2-18.8-3.5c0.5-4.5,0.3-8.9-0.6-13.2c-2.5-10.8-9.5-19-20-23.2
	C46.7,15,47.4,14.9,48.2,14.9z M45.2,15.5c10.5,4.1,17.6,12.2,20,22.9c0.9,4.1,1.1,8.3,0.6,12.7c-4.1-1.8-7.8-4.1-10.9-6.9
	C47,36.7,43.5,26.6,45.2,15.5z M44.3,16.4C43,27.3,46.5,37.3,54.5,44.7c3.2,3,7,5.4,11.3,7.2c-0.9,6.6-3.4,13.3-7.3,19.7
	c0.4-12.8-4.9-23.5-14.3-29c-2.3-1.3-4.8-2.3-7.4-2.9C37,32,39.6,24,44.3,16.4z M43.7,43.3c9.4,5.4,14.5,16.3,13.9,29.2
	c-10.5-4.1-17.7-12.2-20.1-22.9c-0.7-2.9-0.9-6-0.9-9C39.1,41.1,41.5,42,43.7,43.3z M10.7,46.4c6.3-4.3,13.2-6.5,19.8-6.5
	c1.8,0,3.6,0.2,5.3,0.5c-0.1,3.2,0.2,6.3,0.9,9.4c1.7,7.4,5.6,13.6,11.3,18.2c-3.7-1.5-7.6-2.2-11.6-2.2c-3.3,0-6.6,0.5-9.8,1.5
	c-3,0.9-5.9,2.3-8.6,3.9C12.7,65,10,56.3,10.7,46.4z M56.8,73.9c-6.1,3.9-12.6,6-19,6c-4.8,0-9.2-1.2-13.2-3.5
	c-2.2-1.3-4.2-2.9-5.9-4.7c2.6-1.6,5.4-2.9,8.3-3.8c3.2-1,6.4-1.5,9.6-1.5C43.7,66.5,50.7,69.1,56.8,73.9z M17.9,72.2
	c1.8,2,3.9,3.6,6.2,5c4.1,2.4,8.7,3.6,13.6,3.6c6.3,0,12.7-1.9,18.7-5.6C53,81.3,48.8,86.6,44,90.5c-3.9-3.1-8.2-5.4-12.7-6.8
	c-3.2-1-6.5-1.5-9.8-1.5c-6.6,0-13,2.1-18.7,6C6.9,81.4,12,75.9,17.9,72.2z M1.2,91c0.2-0.4,0.4-0.7,0.6-1.1
	C7.7,85.4,14.5,83,21.5,83c3.2,0,6.4,0.5,9.6,1.5c4.4,1.4,8.5,3.6,12.3,6.6c-3.8,3-7.9,5.2-12.3,6.6c-3.2,1-6.4,1.5-9.6,1.5h0
	c-7,0-13.8-2.4-19.6-6.9C1.6,91.8,1.4,91.4,1.2,91z M2.8,93.8c5.7,3.9,12.1,6,18.7,6c0,0,0,0,0,0c3.3,0,6.6-0.5,9.8-1.5
	c4.5-1.4,8.8-3.7,12.7-6.8c4.8,4,9.1,9.2,12.4,15.4c-6-3.7-12.4-5.6-18.7-5.6c-4.9,0-9.5,1.2-13.6,3.6c-2.3,1.4-4.4,3-6.2,5
	C12,106.2,6.9,100.7,2.8,93.8z M56.8,108.1c-6,4.9-13,7.4-20.3,7.4c-3.2,0-6.4-0.5-9.6-1.5c-2.9-0.9-5.6-2.2-8.3-3.8
	c1.7-1.9,3.7-3.5,5.9-4.7c4-2.3,8.4-3.5,13.2-3.5C44.1,102.1,50.7,104.2,56.8,108.1z M35.9,141.7c-1.7,0.3-3.5,0.5-5.3,0.5h0
	c-6.7,0-13.5-2.3-19.8-6.5c-0.7-9.9,2-18.7,7.4-24.8c2.7,1.7,5.6,3,8.6,3.9c3.2,1,6.5,1.5,9.8,1.5c4,0,7.9-0.8,11.6-2.2
	c-5.7,4.5-9.6,10.7-11.3,18.2C36.1,135.4,35.8,138.5,35.9,141.7z M37.5,132.5c2.4-10.7,9.6-18.8,20.1-22.9
	c0.6,12.9-4.5,23.7-13.9,29.2c-2.2,1.3-4.6,2.2-7.1,2.8C36.6,138.4,36.8,135.4,37.5,132.5z M44.7,166.4c-5-7.8-7.7-16.1-8.1-24.1
	c2.6-0.6,5.1-1.5,7.4-2.9c9.4-5.4,14.7-16.2,14.3-29c4,6.4,6.5,13.1,7.3,19.7c-4.1,1.8-7.8,4.1-10.9,7
	C46.6,144.8,43.1,155.1,44.7,166.4z M55.3,137.8c3-2.8,6.6-5.1,10.5-6.8c0.5,4.3,0.3,8.6-0.6,12.7c-2.4,10.6-9.4,18.6-19.7,22.7
	C43.9,155.4,47.3,145.2,55.3,137.8z M48.5,167c-0.7,0-1.4,0-2.1-0.1c10.2-4.3,17.2-12.4,19.6-23.1c1-4.2,1.2-8.7,0.6-13.2
	c5.7-2.4,12.2-3.6,19.1-3.6c0.6,0,1.2,0,1.7,0c-11.2,6.1-17.9,16-17.9,26.9c0,2.7,0.4,5.3,1.2,7.9C64.4,165.2,56.8,167,48.5,167z
	 M70.4,154c0-10.8,6.8-20.7,18.3-26.6c1.7,11.2-1.7,21.4-9.8,28.8c-2.2,2-4.7,3.8-7.4,5.3C70.8,159.1,70.4,156.6,70.4,154z
	 M89.5,181c-8.9-4.3-15.2-11.1-17.8-18.8c2.8-1.5,5.4-3.3,7.7-5.5c5.6-5.2,9-11.7,10.1-18.8c1.1,7.2,4.5,13.7,10.1,18.8
	c2.3,2.1,4.9,3.9,7.7,5.5C104.7,170,98.5,176.7,89.5,181z M107.5,161.5c-2.7-1.5-5.2-3.2-7.4-5.3c-8.1-7.5-11.5-17.7-9.8-28.8
	c11.5,5.9,18.3,15.8,18.3,26.6C108.7,156.6,108.3,159.1,107.5,161.5z M130.6,167C130.6,167,130.6,167,130.6,167
	c-8.3,0-15.9-1.8-22.3-5.1c0.8-2.5,1.2-5.2,1.2-7.9c0-10.9-6.7-20.8-17.9-26.9c0.6,0,1.2,0,1.7,0c6.8,0,13.2,1.2,18.8,3.5
	c-0.5,4.5-0.3,8.9,0.6,13.2c2.5,10.8,9.5,19,20,23.2C132,166.9,131.3,167,130.6,167z M133.5,166.4c-10.5-4.1-17.6-12.2-20-22.9
	c-0.9-4.1-1.1-8.3-0.6-12.7c4.1,1.8,7.8,4.1,10.9,6.9C131.7,145.2,135.2,155.4,133.5,166.4z M134.4,165.5
	c1.3-10.9-2.3-20.9-10.2-28.2c-3.2-3-7-5.4-11.3-7.2c0.9-6.6,3.4-13.3,7.3-19.7c-0.4,12.8,4.9,23.5,14.3,29c2.3,1.3,4.8,2.3,7.4,2.9
	C141.7,149.9,139.1,157.9,134.4,165.5z M135,138.6c-9.4-5.4-14.5-16.3-13.9-29.2c10.5,4.1,17.7,12.2,20.1,22.9c0.7,2.9,0.9,6,0.9,9
	C139.6,140.8,137.2,139.9,135,138.6z M168,135.5c-6.3,4.3-13.2,6.5-19.8,6.5h0c-1.8,0-3.6-0.2-5.3-0.5c0.1-3.2-0.2-6.3-0.9-9.4
	c-1.7-7.4-5.6-13.6-11.3-18.2c3.7,1.5,7.6,2.2,11.6,2.2c0,0,0,0,0,0c3.3,0,6.6-0.5,9.8-1.5c3-0.9,5.9-2.3,8.6-3.9
	C166,116.9,168.7,125.6,168,135.5z M122,108c6.1-3.9,12.6-6,19-6c4.8,0,9.2,1.2,13.2,3.5c2.2,1.3,4.2,2.9,5.9,4.7
	c-2.6,1.6-5.4,2.9-8.3,3.8c-3.2,1-6.4,1.5-9.6,1.5C135,115.4,128,112.8,122,108z M160.8,109.7c-1.8-2-3.9-3.6-6.2-5
	c-4.1-2.4-8.7-3.6-13.6-3.6c-6.3,0-12.7,1.9-18.7,5.6c3.4-6.2,7.6-11.5,12.4-15.4c3.9,3.1,8.2,5.4,12.7,6.8c3.2,1,6.5,1.5,9.8,1.5
	c6.6,0,13-2.1,18.7-6C171.8,100.5,166.7,106,160.8,109.7z M176.9,92c-5.9,4.5-12.6,6.9-19.6,6.9c-3.2,0-6.4-0.5-9.6-1.5
	c-4.4-1.4-8.5-3.6-12.3-6.6c3.8-3,7.9-5.2,12.3-6.6c3.2-1,6.4-1.5,9.6-1.5c7,0,13.8,2.4,19.6,6.9c0.2,0.4,0.4,0.7,0.6,1.1
	C177.3,91.3,177.1,91.6,176.9,92z"/>
</svg>
