<?xml version="1.0" encoding="utf-8"?>
<!-- Generator: Adobe Illustrator 19.2.1, SVG Export Plug-In . SVG Version: 6.00 Build 0)  -->
<svg version="1.1" id="Слой_1" xmlns="http://www.w3.org/2000/svg" xmlns:xlink="http://www.w3.org/1999/xlink" x="0px" y="0px"
	 viewBox="0 0 307.4 362.4" style="enable-background:new 0 0 307.4 362.4;" xml:space="preserve">
<style type="text/css">
	.st0{fill:#E5BF92;}
	.st1{fill:#FFFFFF;}
</style>
<path class="st0" d="M306.8,157.9c0.1-0.2,0.2-0.4,0.3-0.7l0.2-0.5l-0.4-0.3c-0.6-0.5-1.1-0.9-1.7-1.3c-7.3-13.3-16.8-23.9-27.8-31
	c9.5-11,14.1-26.6,12.8-44.2l0-0.3l-0.3-0.2c-11.1-7.7-23.3-11.7-35.1-11.7c-3.2,0-6.2,0.3-9.2,0.9C245,54.1,240,39.3,231,25.3
	l-0.3-0.5l-0.5,0.2c0,0,0,0,0,0l0-0.2l-0.5,0c-1.9-0.1-3.7-0.2-5.6-0.2c-14.3,0-27.6,3.1-38.8,8.9c-4.7-13.8-15.7-25.7-31.5-33.4
	L153.4,0l-0.3,0.1c-15.8,7.7-26.8,19.6-31.5,33.4c-11.2-5.8-24.4-8.9-38.8-8.9c-1.8,0-3.7,0.1-5.6,0.2l-0.5,0l-0.1,0.5l-0.2,0.3
	c-9.1,14-14.1,28.9-14.7,43.2c-3-0.6-6.1-0.9-9.2-0.9c-11.8,0-24,4.1-35.1,11.7l-0.3,0.2l0,0.3c-1.3,17.6,3.4,33.2,12.8,44.2
	c-11,7.1-20.5,17.7-27.8,31c-0.6,0.4-1.1,0.9-1.7,1.3L0,157l0.2,0.5c0.1,0.2,0.2,0.4,0.3,0.7c-0.1,0.2-0.2,0.4-0.3,0.7L0,159.3
	c0,0,1.5,1.3,2.1,1.7c7.3,13.3,16.8,23.9,27.8,31c-9.5,11-14.1,26.6-12.8,44.2l0,0.3l0.3,0.2c11.1,7.7,23.3,11.7,35.1,11.7
	c0,0,0,0,0,0c3.2,0,6.2-0.3,9.2-0.9c0.7,14.3,5.6,29.2,14.7,43.2l0.3,0.5l0.5-0.2c0,0,0,0,0,0l0,0.2l0.5,0c1.9,0.1,3.7,0.2,5.6,0.2
	c14.3,0,27.6-3.1,38.8-8.9c4.7,13.8,15.7,25.7,31.5,33.4l0.3,0.1l0.3-0.1c15.8-7.7,26.8-19.6,31.5-33.4c11.2,5.8,24.4,8.9,38.8,8.9
	c0,0,0,0,0,0c1.8,0,3.7-0.1,5.6-0.2l0.5,0l0.1-0.5l0.2-0.3c9.1-14,14.1-28.9,14.7-43.2c3,0.6,6.1,0.9,9.2,0.9c0,0,0,0,0,0
	c11.8,0,24-4.1,35.1-11.7l0.3-0.2l0-0.3c1.3-17.6-3.4-33.2-12.8-44.2c11-7.1,20.5-17.7,27.8-31c0.6-0.4,1.1-0.9,1.7-1.3l0.4-0.3
	l-0.2-0.5C307,158.3,306.9,158.1,306.8,157.9z M302.6,153c-9.8-6.9-20.8-10.5-32.1-10.5c-5.6,0-11.3,0.9-16.9,2.6
	c-7.8,2.4-15.1,6.5-21.8,11.8c-8.3-6.9-15.6-16-21.4-26.8c10.3,6.4,21.3,9.8,32.1,9.8c0,0,0,0,0,0c8.5,0,16.3-2.1,23.4-6.2
	c4-2.4,7.6-5.3,10.7-8.7C286.7,131.6,295.6,141.1,302.6,153z M183.5,107c3.3,5.3,5.2,10.9,5.4,16.3c-1.8,0.4-3.4,1-5,1.9
	c-6.3,3.7-9.8,10.9-9.6,19.6c-2.7-4.4-4.3-8.9-4.9-13.3c2.8-1.2,5.2-2.8,7.3-4.7C182.3,121.6,184.6,114.6,183.5,107z M177,189.3
	c-2.1-2-4.7-3.6-7.6-4.8c0.6-4.5,2.2-9,4.9-13.4c-0.2,8.6,3.3,15.9,9.6,19.6c1.6,0.9,3.2,1.5,5,1.9c-0.2,5.2-2,10.6-5.1,15.8
	C184.7,201,182.3,194.2,177,189.3z M123.8,209c-3.3-5.3-5.2-10.9-5.4-16.3c1.8-0.4,3.4-1,5-1.9c6.3-3.7,9.8-10.9,9.6-19.6
	c2.7,4.4,4.3,8.9,4.9,13.3c-2.8,1.2-5.2,2.8-7.3,4.7C125.1,194.4,122.7,201.4,123.8,209z M130.3,126.7c2.1,2,4.7,3.6,7.6,4.8
	c-0.6,4.5-2.2,9-4.9,13.4c0.2-8.6-3.3-15.9-9.6-19.6c-1.6-0.9-3.2-1.5-5-1.9c0.2-5.2,2-10.6,5.1-15.8
	C122.6,115,125,121.7,130.3,126.7z M140.2,115.4c0,7.3,4.4,14,12,18.1c-5,0.1-9.6-0.7-13.7-2.3c0.4-3,0.2-6-0.4-8.9
	c-1.6-7.3-6.4-12.8-13.4-15.7c6.1-0.2,11.7,1,16.3,3.4C140.5,111.8,140.2,113.6,140.2,115.4z M141.5,110.4c1.8,1,3.5,2.2,5,3.5
	c5.4,5,7.7,12,6.5,19.5c-7.7-4-12.3-10.7-12.3-18C140.8,113.7,141,112,141.5,110.4z M137.5,122.5c0.6,2.8,0.8,5.6,0.4,8.6
	c-2.7-1.2-5.2-2.8-7.3-4.7c-5.3-5-7.7-11.8-6.6-19.3C131.2,109.8,135.9,115.2,137.5,122.5z M123.1,125.8c6.3,3.7,9.7,11,9.3,19.7
	c-7-2.7-11.8-8.2-13.4-15.5c-0.4-2-0.6-4-0.6-6.1C120.1,124.3,121.7,124.9,123.1,125.8z M118.5,130.2c1.1,5,3.8,9.2,7.6,12.3
	c-2.5-1-5.1-1.5-7.8-1.5c-2.2,0-4.4,0.3-6.6,1c-2,0.6-3.9,1.5-5.7,2.7c-3.6-4.1-5.4-10.1-4.9-16.7c4.2-2.9,8.8-4.4,13.3-4.4
	c1.2,0,2.4,0.2,3.6,0.4C117.8,126,118,128.1,118.5,130.2z M131.9,146.5c-4.1,2.7-8.4,4.1-12.7,4.1c-3.2,0-6.2-0.8-8.8-2.3
	c-1.5-0.9-2.8-2-4-3.2c1.8-1.1,3.6-1.9,5.5-2.5c2.1-0.7,4.3-1,6.4-1C123.1,141.5,127.8,143.2,131.9,146.5z M110.1,148.7
	c2.7,1.6,5.8,2.4,9.1,2.4c4.2,0,8.5-1.3,12.5-3.8c-2.2,4.2-5.1,7.8-8.3,10.5c-2.6-2.1-5.5-3.7-8.5-4.6c-2.2-0.7-4.4-1-6.6-1
	c-4.4,0-8.7,1.4-12.5,4.1c2.7-4.6,6.2-8.3,10.1-10.9C107.1,146.6,108.5,147.8,110.1,148.7z M108.3,152.6c2.1,0,4.3,0.3,6.4,1
	c2.9,0.9,5.7,2.4,8.2,4.4c-2.5,2-5.3,3.5-8.2,4.4c-2.1,0.7-4.3,1-6.4,1c0,0,0,0,0,0c-4.7,0-9.2-1.6-13.2-4.7
	c-0.1-0.2-0.3-0.5-0.4-0.7c0.1-0.2,0.3-0.5,0.4-0.7C99.1,154.3,103.6,152.6,108.3,152.6z M108.3,164C108.3,164,108.3,164,108.3,164
	c2.2,0,4.4-0.3,6.6-1c3-0.9,5.9-2.5,8.5-4.6c3.2,2.7,6.1,6.2,8.3,10.4c-4-2.5-8.3-3.8-12.5-3.8c-3.3,0-6.3,0.8-9.1,2.4
	c-1.6,0.9-3,2.1-4.2,3.4c-3.9-2.5-7.4-6.2-10.1-10.9C99.6,162.6,103.8,164,108.3,164z M131.9,169.6c-4,3.3-8.7,5-13.6,5
	c-2.1,0-4.3-0.3-6.4-1c-1.9-0.6-3.8-1.5-5.5-2.5c1.2-1.3,2.5-2.3,4-3.2c2.7-1.5,5.6-2.3,8.8-2.3C123.4,165.5,127.8,167,131.9,169.6z
	 M106,171.5c1.8,1.1,3.7,2,5.7,2.7c2.2,0.7,4.4,1,6.6,1c2.7,0,5.3-0.5,7.8-1.5c-3.8,3.1-6.4,7.3-7.6,12.3c-0.5,2-0.7,4.2-0.6,6.3
	c-1.2,0.2-2.3,0.4-3.6,0.4h0c-4.5,0-9-1.5-13.3-4.4C100.6,181.5,102.4,175.6,106,171.5z M119,186.1c1.6-7.2,6.4-12.7,13.4-15.5
	c0.4,8.7-3,16-9.3,19.7c-1.5,0.9-3.1,1.5-4.7,1.9C118.4,190.1,118.5,188,119,186.1z M130.9,189.7c2-1.9,4.4-3.4,7-4.6
	c0.3,2.9,0.2,5.8-0.4,8.6c-1.6,7.1-6.3,12.6-13.2,15.3C123.3,201.5,125.6,194.7,130.9,189.7z M138.1,193.7c0.6-2.9,0.8-5.8,0.4-8.9
	c3.8-1.6,8.2-2.5,12.8-2.5c0.4,0,0.8,0,1.2,0c-7.5,4.1-12,10.8-12,18.2c0,1.8,0.3,3.6,0.8,5.3c-4.3,2.2-9.4,3.5-14.9,3.5
	c-0.5,0-0.9,0-1.4,0C131.8,206.4,136.4,200.9,138.1,193.7z M141,200.6c0-7.3,4.6-14,12.3-18c1.2,7.5-1.1,14.4-6.5,19.5
	c-1.5,1.4-3.1,2.5-5,3.5C141.2,204,141,202.3,141,200.6z M153.4,181.9c-0.7,0-1.4-0.1-2.1-0.1c-4.7,0-9,0.9-12.9,2.5
	c-0.6-4.8-2.5-9.6-5.5-14.2c0-0.1,0-0.2,0-0.3l0-0.1l-0.1-0.1c-0.1-0.1-0.2-0.1-0.3-0.2c-2.3-4.6-5.3-8.5-8.8-11.4
	c3.5-2.9,6.5-6.7,8.8-11.4c0.1-0.1,0.4-0.6,0.4-0.7c3-4.6,4.8-9.5,5.5-14.2c3.8,1.5,8.1,2.4,12.7,2.4c0.7,0,1.4,0,2.1-0.1
	c0.1,0,0.2,0.1,0.3,0.2l0.1,0.1l0.1-0.1c0.1,0,0.2-0.1,0.3-0.2c0.7,0,1.4,0.1,2.1,0.1c4.7,0,9-0.9,12.9-2.5
	c0.6,4.8,2.5,9.6,5.5,14.2c0,0.1,0,0.2,0,0.3l0,0.1l0.1,0.1c0.1,0.1,0.2,0.1,0.3,0.2c2.3,4.6,5.3,8.5,8.8,11.4
	c-3.5,2.9-6.5,6.7-8.8,11.4c-0.1,0.1-0.2,0.1-0.3,0.2l-0.1,0.1l0,0.1c0,0.1,0,0.2,0,0.3c-3,4.6-4.8,9.5-5.5,14.2
	c-3.8-1.5-8.1-2.4-12.7-2.4c-0.7,0-1.4,0-2.1,0.1c-0.1,0-0.2-0.1-0.3-0.2l-0.1-0.1l-0.1,0.1C153.6,181.8,153.5,181.9,153.4,181.9z
	 M154.4,182.6c7.7,4,12.3,10.7,12.3,18c0,1.7-0.3,3.4-0.8,5c-1.8-1-3.5-2.2-5-3.5C155.5,197.1,153.2,190.1,154.4,182.6z
	 M167.1,200.6c0-7.3-4.4-14-12-18.1c5-0.1,9.6,0.7,13.7,2.3c-0.4,3-0.2,6,0.4,8.9c1.6,7.3,6.4,12.8,13.4,15.7c-0.5,0-1,0-1.4,0
	c-5.5,0-10.6-1.2-14.9-3.5C166.9,204.2,167.1,202.4,167.1,200.6z M169.8,193.5c-0.6-2.8-0.8-5.6-0.4-8.6c2.7,1.2,5.2,2.8,7.3,4.7
	c5.4,5,7.7,11.8,6.6,19.3C176.2,206.2,171.5,200.8,169.8,193.5z M184.2,190.2c-6.3-3.7-9.7-11-9.3-19.7c7,2.7,11.8,8.2,13.4,15.5
	c0.4,2,0.6,4,0.6,6.1C187.3,191.7,185.7,191.1,184.2,190.2z M188.9,185.8c-1.1-5-3.8-9.2-7.6-12.3c2.5,1,5.1,1.5,7.8,1.5
	c2.2,0,4.4-0.3,6.6-1c2-0.6,3.9-1.5,5.7-2.7c3.6,4.1,5.4,10.1,4.9,16.7c-4.2,2.9-8.8,4.4-13.3,4.4c-1.2,0-2.4-0.2-3.6-0.4
	C189.5,190,189.3,187.9,188.9,185.8z M175.5,169.5c4.1-2.7,8.4-4.1,12.7-4.1c3.2,0,6.2,0.8,8.8,2.3c1.5,0.9,2.8,2,4,3.2
	c-1.8,1.1-3.6,1.9-5.5,2.5c-2.1,0.7-4.3,1-6.4,1C184.2,174.5,179.5,172.8,175.5,169.5z M197.3,167.3c-2.7-1.6-5.8-2.4-9.1-2.4
	c-4.2,0-8.5,1.3-12.5,3.8c2.2-4.2,5.1-7.8,8.3-10.5c2.6,2.1,5.5,3.7,8.5,4.6c2.2,0.7,4.4,1,6.6,1c4.4,0,8.7-1.4,12.5-4.1
	c-2.7,4.6-6.2,8.3-10.1,10.9C200.3,169.4,198.9,168.2,197.3,167.3z M199.1,163.4c-2.1,0-4.3-0.3-6.4-1c-2.9-0.9-5.7-2.4-8.2-4.4
	c2.5-2,5.3-3.5,8.2-4.4c2.1-0.7,4.3-1,6.4-1c4.7,0,9.2,1.6,13.2,4.7c0.1,0.2,0.3,0.5,0.4,0.7c-0.1,0.2-0.3,0.5-0.4,0.7
	C208.3,161.7,203.8,163.4,199.1,163.4z M199.1,152c-2.2,0-4.4,0.3-6.6,1c-3,0.9-5.9,2.5-8.5,4.6c-3.2-2.7-6.1-6.2-8.3-10.4
	c4,2.5,8.3,3.8,12.5,3.8h0c3.3,0,6.3-0.8,9.1-2.4c1.6-0.9,3-2.1,4.2-3.4c3.9,2.5,7.4,6.2,10.1,10.9C207.8,153.4,203.5,152,199.1,152
	z M175.5,146.4c4-3.3,8.7-5,13.6-5c2.1,0,4.3,0.3,6.4,1c1.9,0.6,3.8,1.5,5.5,2.5c-1.2,1.3-2.5,2.3-4,3.2c-2.7,1.5-5.6,2.3-8.8,2.3h0
	C183.9,150.5,179.6,149,175.5,146.4z M201.4,144.5c-1.8-1.1-3.7-2-5.7-2.7c-2.2-0.7-4.4-1-6.6-1c-2.7,0-5.3,0.5-7.8,1.5
	c3.8-3.1,6.4-7.3,7.6-12.3c0.5-2,0.7-4.2,0.6-6.3c1.2-0.2,2.3-0.4,3.6-0.4c4.5,0,9,1.5,13.3,4.4C206.8,134.5,205,140.4,201.4,144.5z
	 M188.4,129.9c-1.6,7.2-6.4,12.7-13.4,15.5c-0.4-8.7,3-16,9.3-19.7c1.5-0.9,3.1-1.5,4.7-1.9C189,125.9,188.8,128,188.4,129.9z
	 M176.4,126.3c-2,1.9-4.4,3.4-7,4.6c-0.3-2.9-0.2-5.8,0.4-8.6c1.6-7.1,6.3-12.6,13.2-15.3C184.1,114.5,181.8,121.3,176.4,126.3z
	 M169.3,122.2c-0.6,2.9-0.8,5.8-0.4,8.9c-3.8,1.6-8.2,2.5-12.8,2.5c-0.4,0-0.8,0-1.2,0c7.5-4.1,12-10.8,12-18.2
	c0-1.8-0.3-3.6-0.8-5.3c4.3-2.2,9.4-3.5,14.9-3.5c0.5,0,0.9,0,1.4,0C175.6,109.6,170.9,115.1,169.3,122.2z M166.4,115.4
	c0,7.3-4.6,14-12.3,18c-1.2-7.5,1.1-14.4,6.5-19.5c1.5-1.4,3.1-2.5,5-3.5C166.1,112,166.4,113.7,166.4,115.4z M160.3,113.5
	c-3.7,3.5-6,7.9-6.7,12.7c-0.7-4.9-3-9.2-6.8-12.7c-1.5-1.4-3.3-2.6-5.2-3.7c1.7-5.2,5.9-9.8,11.9-12.7c6,2.9,10.2,7.5,11.9,12.7
	C163.6,110.9,161.8,112.1,160.3,113.5z M141.2,109.6c-4.3-2.3-9.5-3.5-15.1-3.5c-0.7,0-1.4,0-2.2,0.1l-0.2,0l0,0.2l-0.1,0.1
	c-3.5,5.5-5.5,11.3-5.7,16.8c-1.2-0.2-2.3-0.4-3.6-0.4c-4.6,0-9.3,1.6-13.7,4.6l-0.1,0.1l0,0.1c-0.5,6.9,1.3,12.9,5,17.2
	c-4.3,2.8-8,6.9-10.8,12.1c-0.2,0.2-0.4,0.3-0.6,0.5l-0.2,0.1l0.1,0.2c0,0.1,0.1,0.2,0.1,0.3c0,0.1-0.1,0.2-0.1,0.3l-0.1,0.2
	l0.2,0.1c0.2,0.2,0.4,0.3,0.6,0.5c2.8,5.2,6.6,9.3,10.8,12.1c-3.7,4.3-5.5,10.3-5,17.2l0,0.1l0.1,0.1c4.3,3,9.1,4.6,13.7,4.6
	c0,0,0,0,0,0c1.2,0,2.4-0.2,3.6-0.4c0.2,5.6,2.2,11.4,5.7,16.8l0.1,0.2l0.2-0.1c0,0,0,0,0,0l0,0.1l0.2,0c0.7,0,1.5,0.1,2.2,0.1
	c5.6,0,10.7-1.2,15.1-3.5c1.8,5.3,6,9.9,12,12.9c-0.2,0.1-0.3,0.2-0.5,0.3c-1.8-0.1-3.6-0.1-5.4-0.1c-12,0-23.2,2.2-33.1,6.3
	c-1.7-12.2-6.4-24.6-14-36.5c0-0.3,0-0.6,0-0.9l0-0.3l-0.3-0.2c-0.2-0.2-0.5-0.3-0.7-0.5c-6-11.9-13.7-21.8-22.6-29.2
	c8.9-7.4,16.6-17.3,22.6-29.2c0.2-0.2,0.5-0.3,0.7-0.5l0.3-0.2l0-0.3c0-0.3,0-0.6,0-0.9c7.6-11.9,12.4-24.3,14-36.5
	c9.7,3.9,20.8,6,32.5,6c0,0,0,0,0,0c1.8,0,3.6-0.1,5.4-0.1c0.2,0.1,0.4,0.2,0.7,0.3C147.1,99.8,143,104.4,141.2,109.6z M141.9,206.2
	c1.9-1,3.6-2.2,5.2-3.7c3.7-3.5,6-7.9,6.7-12.7c0.7,4.9,3,9.2,6.8,12.7c1.5,1.4,3.3,2.6,5.2,3.7c-1.7,5.2-5.9,9.8-11.9,12.7
	C147.8,215.9,143.6,211.4,141.9,206.2z M166.2,206.4c4.3,2.3,9.5,3.5,15.1,3.5c0.7,0,1.4,0,2.2-0.1l0.2,0l0-0.2l0.1-0.1
	c3.5-5.5,5.5-11.3,5.7-16.8c1.2,0.2,2.3,0.4,3.6,0.4c0,0,0,0,0,0c4.6,0,9.3-1.6,13.7-4.6l0.1-0.1l0-0.1c0.5-6.9-1.3-12.9-5-17.2
	c4.3-2.8,8-6.9,10.8-12.1c0.2-0.2,0.4-0.3,0.6-0.5l0.2-0.1l-0.1-0.2c0-0.1-0.1-0.2-0.1-0.3c0-0.1,0.1-0.2,0.1-0.3l0.1-0.2l-0.2-0.1
	c-0.2-0.2-0.4-0.3-0.6-0.5c-2.8-5.2-6.6-9.3-10.8-12.1c3.7-4.3,5.5-10.3,5-17.2l0-0.1l-0.1-0.1c-4.3-3-9.1-4.6-13.7-4.6
	c-1.2,0-2.4,0.2-3.6,0.4c-0.2-5.6-2.2-11.4-5.7-16.8l-0.1-0.2l-0.2,0.1c0,0,0,0,0,0l0-0.1l-0.2,0c-0.7,0-1.5-0.1-2.2-0.1
	c-5.6,0-10.7,1.2-15.1,3.5c-1.8-5.3-6-9.9-12-12.9c0.2-0.1,0.3-0.2,0.5-0.3c1.8,0.1,3.6,0.1,5.4,0.1c12,0,23.2-2.2,33.1-6.3
	c1.7,12.2,6.4,24.6,14,36.5c0,0.3,0,0.6,0,0.9l0,0.3l0.3,0.2c0.2,0.2,0.5,0.3,0.7,0.5c6,11.9,13.7,21.8,22.6,29.2
	c-8.9,7.4-16.6,17.3-22.6,29.2c-0.2,0.2-0.5,0.3-0.7,0.5l-0.3,0.2l0,0.3c0,0.3,0,0.6,0,0.9c-7.6,11.9-12.4,24.3-14,36.5
	c-9.7-3.9-20.8-6-32.5-6c-1.8,0-3.6,0.1-5.4,0.1c-0.2-0.1-0.4-0.2-0.7-0.3C160.3,216.2,164.4,211.6,166.2,206.4z M209.7,128.2
	c10.4-8.5,22.4-12.9,34.9-12.9c5.5,0,11,0.9,16.5,2.6c4.9,1.5,9.7,3.8,14.2,6.5c-3,3.2-6.4,6-10.2,8.2c-6.8,4-14.5,6-22.7,6
	C231.5,138.6,220.2,135,209.7,128.2z M245.7,69.8c3-0.6,6-0.9,9.2-0.9c11.5,0,23.2,3.9,34.1,11.3c1.2,17.2-3.4,32.4-12.7,43.1
	c-4.7-2.9-9.6-5.2-14.8-6.8c-5.6-1.7-11.2-2.6-16.9-2.6c-6.8,0-13.5,1.3-19.9,3.8c9.8-7.9,16.5-18.6,19.4-31.6
	C245.4,80.9,245.9,75.4,245.7,69.8z M242.9,85.9c-4.2,18.6-16.5,32.7-34.6,39.8c-1.1-22.4,7.7-41.2,23.9-50.7
	c3.8-2.2,7.9-3.8,12.2-4.8C244.5,75.5,244,80.8,242.9,85.9z M230.4,27c8.6,13.6,13.3,28,13.9,41.8c-4.5,1-8.8,2.7-12.8,5
	c-16.2,9.5-25.3,28.1-24.6,50.3c-6.8-11.2-11.1-22.8-12.6-34.3c7.1-3.1,13.5-7.2,18.8-12.2C227.1,64.4,233.2,46.5,230.4,27z
	 M212.2,76.6c-5.2,4.8-11.3,8.8-18.1,11.8c-0.8-7.5-0.5-14.9,1.1-22c4.1-18.4,16.2-32.3,33.9-39.5C231.9,46.1,226,63.7,212.2,76.6z
	 M224,25.9c1.2,0,2.4,0,3.6,0.1c-17.6,7.4-29.6,21.5-33.7,40c-1.7,7.4-2,15.1-1.1,22.9c-9.8,4.1-21,6.3-32.9,6.3c-1,0-2,0-3-0.1
	c19.3-10.6,30.8-27.8,30.8-46.7c0-4.7-0.7-9.3-2.1-13.7C196.6,29,209.8,25.9,224,25.9z M186.3,48.5c0,18.8-11.7,36-31.5,46.2
	c-3-19.4,2.9-37.1,16.8-50.1c3.8-3.5,8.1-6.6,12.7-9.2C185.7,39.7,186.3,44,186.3,48.5z M153.4,1.5c15.4,7.5,26.1,19.2,30.6,32.6
	c-4.9,2.7-9.3,5.8-13.2,9.5c-9.6,9-15.5,20.2-17.4,32.7c-1.9-12.5-7.7-23.7-17.4-32.7c-3.9-3.7-8.4-6.8-13.2-9.5
	C127.3,20.7,138,9,153.4,1.5z M122.4,35.5c4.7,2.6,9,5.6,12.7,9.2c13.9,13,19.8,30.7,16.8,50.1c-19.7-10.2-31.5-27.4-31.5-46.2
	C120.4,44,121.1,39.7,122.4,35.5z M82.8,25.9c14.2,0,27.4,3.1,38.4,8.9c-1.4,4.4-2.1,9-2.1,13.7c0,18.9,11.4,36.1,30.8,46.7
	c-1,0-2,0.1-3,0.1h0c-11.7,0-22.7-2.1-32.3-6c0.9-7.8,0.6-15.5-1.1-22.9c-4.2-18.7-16.4-33-34.4-40.3C80.3,26,81.6,25.9,82.8,25.9z
	 M77.7,26.9c18,7.1,30.3,21.1,34.5,39.7c1.6,7.1,1.9,14.5,1.1,22c-7-3-13.4-7.1-18.7-12.1C80.8,63.7,74.9,46.1,77.7,26.9z
	 M76.1,28.5c-2.3,18.9,3.9,36.3,17.5,49c5.5,5.2,12.1,9.4,19.4,12.5c-1.5,11.4-5.8,23.1-12.6,34.3c0.6-22.2-8.4-40.8-24.6-50.3
	c-4-2.3-8.3-4-12.8-5C63.6,55.7,68.1,41.8,76.1,28.5z M75.2,75.2c16.2,9.4,25,28.3,23.9,50.7c-18.1-7.1-30.4-21.1-34.6-39.8
	C63.4,81,62.9,75.8,63,70.4C67.3,71.4,71.4,73,75.2,75.2z M18.4,80.5C29.3,73.1,41,69.2,52.5,69.2c3.1,0,6.2,0.3,9.2,0.9
	c-0.1,5.6,0.3,11,1.5,16.3c2.9,12.9,9.6,23.7,19.4,31.6c-6.4-2.5-13.1-3.8-19.9-3.8c-5.6,0-11.3,0.9-16.9,2.6
	c-5.1,1.6-10.1,3.9-14.8,6.8C21.8,113,17.2,97.7,18.4,80.5z M97.6,128.4c-10.5,6.8-21.7,10.4-32.7,10.4c-8.2,0-15.9-2-22.7-6
	c-3.8-2.2-7.2-5-10.2-8.2c4.5-2.8,9.3-5,14.2-6.5c5.4-1.7,11-2.6,16.5-2.6C75.2,115.5,87.3,120,97.6,128.4z M30.8,125.4
	c3.1,3.4,6.7,6.3,10.7,8.7c7,4.1,14.9,6.2,23.4,6.2c10.8,0,21.8-3.4,32.1-9.8c-5.8,10.9-13,19.9-21.4,26.8
	c-6.7-5.4-14-9.4-21.8-11.8c-5.6-1.7-11.2-2.6-16.9-2.6c-11.4,0-22.4,3.6-32.1,10.5C11.8,141.4,20.7,131.9,30.8,125.4z M2.1,158.1
	c0.3-0.7,0.7-1.3,1-1.9c10.1-7.9,21.7-12,33.8-12c5.5,0,11,0.9,16.5,2.6c7.5,2.4,14.6,6.2,21.1,11.4c-6.5,5.2-13.6,9-21.1,11.4
	c-5.4,1.7-11,2.6-16.5,2.6c0,0,0,0,0,0c-12,0-23.7-4.1-33.8-12C2.8,159.4,2.4,158.8,2.1,158.1z M4.8,163
	c9.8,6.9,20.8,10.5,32.1,10.5c0,0,0,0,0,0c5.6,0,11.3-0.9,16.9-2.6c7.8-2.4,15.1-6.5,21.8-11.8c8.3,6.9,15.6,16,21.4,26.8
	c-10.3-6.4-21.3-9.8-32.1-9.8c-8.5,0-16.3,2.1-23.4,6.2c-4,2.4-7.6,5.3-10.7,8.7C20.7,184.4,11.8,174.9,4.8,163z M97.6,187.8
	c-10.4,8.5-22.4,12.9-34.9,12.9c-5.5,0-11-0.9-16.5-2.6c-4.9-1.5-9.7-3.8-14.2-6.5c3-3.2,6.4-6,10.2-8.2c6.8-4,14.5-6,22.7-6
	C75.9,177.4,87.2,181,97.6,187.8z M61.7,246.2c-3,0.6-6,0.9-9.2,0.9c0,0,0,0,0,0c-11.5,0-23.2-3.9-34.1-11.3
	c-1.2-17.2,3.4-32.4,12.7-43.1c4.7,2.9,9.6,5.2,14.8,6.8c5.6,1.7,11.2,2.6,16.9,2.6c6.8,0,13.5-1.3,19.9-3.8
	c-9.8,7.9-16.5,18.6-19.4,31.6C62,235.1,61.5,240.6,61.7,246.2z M64.5,230.1c4.2-18.6,16.5-32.7,34.6-39.8
	c1.1,22.4-7.7,41.2-23.9,50.7c-3.8,2.2-7.9,3.8-12.2,4.8C62.9,240.5,63.4,235.2,64.5,230.1z M76.9,289c-8.6-13.6-13.3-28-13.9-41.8
	c4.5-1,8.8-2.7,12.8-5c16.2-9.5,25.3-28.1,24.6-50.3c6.8,11.2,11.1,22.8,12.6,34.3c-7.1,3.1-13.5,7.2-18.8,12.2
	C80.2,251.5,74.1,269.5,76.9,289z M95.2,239.4c5.2-4.8,11.3-8.8,18.1-11.8c0.8,7.5,0.5,14.9-1.1,22C108,268,96,281.9,78.3,289.1
	C75.5,269.9,81.4,252.3,95.2,239.4z M83.4,290c-1.2,0-2.4,0-3.6-0.1c17.6-7.4,29.6-21.5,33.7-40c1.7-7.4,2-15.1,1.1-22.9
	c9.8-4.1,21-6.3,32.9-6.3c1,0,2,0,3,0.1c-19.3,10.6-30.8,27.8-30.8,46.7c0,4.7,0.7,9.3,2.1,13.7C110.8,287,97.6,290,83.4,290z
	 M121,267.5c0-18.8,11.7-36,31.5-46.2c3,19.4-2.9,37.1-16.8,50.1c-3.8,3.5-8.1,6.6-12.7,9.2C121.7,276.3,121,272,121,267.5z
	 M154,314.5c-15.4-7.5-26.1-19.2-30.6-32.6c4.9-2.7,9.3-5.8,13.2-9.5c9.6-9,15.5-20.2,17.4-32.7c1.9,12.5,7.7,23.7,17.4,32.7
	c3.9,3.7,8.4,6.8,13.2,9.5C180.1,295.3,169.3,306.9,154,314.5z M185,280.5c-4.7-2.6-9-5.6-12.7-9.2c-13.9-13-19.8-30.7-16.8-50.1
	c19.7,10.2,31.5,27.4,31.5,46.2C186.9,272,186.2,276.3,185,280.5z M224.6,290C224.6,290,224.6,290,224.6,290
	c-14.2,0-27.4-3.1-38.4-8.9c1.4-4.4,2.1-9,2.1-13.7c0-18.9-11.4-36.1-30.8-46.7c1,0,2-0.1,3-0.1c11.7,0,22.7,2.1,32.3,6
	c-0.9,7.8-0.6,15.5,1.1,22.9c4.2,18.7,16.4,33,34.4,40.3C227,290,225.8,290,224.6,290z M229.6,289.1c-18-7.1-30.3-21.1-34.5-39.7
	c-1.6-7.1-1.9-14.5-1.1-22c7,3,13.4,7.1,18.7,12.1C226.5,252.3,232.5,269.9,229.6,289.1z M231.2,287.4c2.3-18.9-3.9-36.3-17.5-49
	c-5.5-5.2-12.1-9.4-19.4-12.5c1.5-11.4,5.8-23.1,12.6-34.3c-0.6,22.2,8.4,40.8,24.6,50.3c4,2.3,8.3,4,12.8,5
	C243.8,260.3,239.3,274.2,231.2,287.4z M232.2,240.8c-16.2-9.4-25-28.3-23.9-50.7c18.1,7.1,30.4,21.1,34.6,39.8
	c1.1,5.1,1.6,10.4,1.5,15.7C240.1,244.6,236,243,232.2,240.8z M289,235.4c-10.9,7.4-22.6,11.3-34.1,11.3h0c-3.1,0-6.2-0.3-9.2-0.9
	c0.1-5.6-0.3-11-1.5-16.3c-2.9-12.9-9.6-23.7-19.4-31.6c6.4,2.5,13.1,3.8,19.9,3.8c0,0,0,0,0,0c5.6,0,11.3-0.9,16.9-2.6
	c5.1-1.6,10.1-3.9,14.8-6.8C285.6,203,290.2,218.2,289,235.4z M209.7,187.6c10.5-6.8,21.7-10.4,32.7-10.4c8.2,0,15.9,2,22.7,6
	c3.8,2.2,7.2,5,10.2,8.2c-4.5,2.8-9.3,5-14.2,6.5c-5.4,1.7-11,2.6-16.5,2.6C232.2,200.5,220.1,196,209.7,187.6z M276.5,190.6
	c-3.1-3.4-6.7-6.3-10.7-8.7c-7-4.1-14.9-6.2-23.4-6.2c-10.8,0-21.8,3.4-32.1,9.8c5.8-10.9,13-19.9,21.4-26.8
	c6.7,5.4,14,9.4,21.8,11.8c5.6,1.7,11.2,2.6,16.9,2.6c11.4,0,22.4-3.6,32.1-10.5C295.5,174.6,286.7,184.1,276.5,190.6z M304.2,159.8
	c-10.1,7.9-21.7,12-33.8,12c-5.5,0-11-0.9-16.5-2.6c-7.5-2.4-14.6-6.2-21.1-11.4c6.5-5.2,13.6-9,21.1-11.4c5.4-1.7,11-2.6,16.5-2.6
	c12,0,23.7,4.1,33.8,12c0.4,0.6,0.7,1.3,1,1.9C304.9,158.5,304.6,159.2,304.2,159.8z"/>
<g>
	<g>
		<path class="st1" d="M46.3,332.3c0.9-0.3,1.5-0.7,2-1.3c0.4-0.6,0.7-1.3,0.7-2.1c0-0.6-0.1-1.2-0.4-1.7c-0.3-0.5-0.7-0.9-1.2-1.3
			c-0.5-0.4-1.2-0.6-2.1-0.8c-0.8-0.2-1.8-0.3-2.9-0.3h-7.5v15.6H43c2.4,0,4.1-0.4,5.2-1.2c1.1-0.8,1.6-1.8,1.6-3.2
			c0-1-0.3-1.8-0.9-2.5C48.2,332.9,47.4,332.5,46.3,332.3z M38,326.5h4.3c1.1,0,1.9,0.2,2.4,0.6c0.5,0.4,0.8,1,0.8,1.8
			c0,1.8-1.1,2.7-3.2,2.7H38V326.5z M45.5,338.1c-0.6,0.4-1.4,0.7-2.5,0.7h-5v-5.5h5c1.1,0,1.9,0.2,2.5,0.7c0.6,0.5,0.9,1.2,0.9,2.1
			C46.4,337,46.1,337.6,45.5,338.1z"/>
		<polygon class="st1" points="62.3,324.8 59.1,324.8 59.1,340.4 71.8,340.4 71.8,338.7 62.3,338.7 		"/>
		<path class="st1" d="M91.9,334.1c0,0.9-0.1,1.7-0.3,2.4c-0.2,0.7-0.5,1.2-1,1.6c-0.4,0.4-0.9,0.7-1.5,0.9c-0.6,0.2-1.2,0.3-2,0.3
			c-0.7,0-1.4-0.1-2-0.3c-0.6-0.2-1.1-0.5-1.5-0.9c-0.4-0.4-0.7-1-1-1.6c-0.2-0.7-0.3-1.5-0.3-2.4v-9.3h-3.2v9.3
			c0,2.3,0.7,4,2.1,5.1c1.4,1.1,3.3,1.7,5.9,1.7c2.5,0,4.5-0.6,5.9-1.7c1.4-1.1,2.1-2.8,2.1-5.1v-9.3h-3.2V334.1z"/>
		<polygon class="st1" points="115.6,338.2 115.3,338.2 109.6,324.8 104.9,324.8 104.9,340.4 108.1,340.4 108.1,327.9 108.3,327.9 
			113.6,340.4 117.3,340.4 122.6,327.9 122.8,327.9 122.8,340.4 126,340.4 126,324.8 121.3,324.8 		"/>
		<polygon class="st1" points="135.8,340.4 149.2,340.4 149.2,338.7 139,338.7 139,333.3 147,333.3 147,331.6 139,331.6 139,326.5 
			149.2,326.5 149.2,324.8 135.8,324.8 		"/>
		<polygon class="st1" points="170.7,337.5 170.5,337.5 162.2,324.8 158,324.8 158,340.4 161.2,340.4 161.2,327.7 161.5,327.7 
			169.7,340.4 173.9,340.4 173.9,324.8 170.7,324.8 		"/>
		<polygon class="st1" points="195.9,331.9 186.8,331.9 186.8,324.8 183.6,324.8 183.6,340.4 186.8,340.4 186.8,333.6 195.9,333.6 
			195.9,340.4 199.1,340.4 199.1,324.8 195.9,324.8 		"/>
		<path class="st1" d="M213.8,324.8l-6.3,15.6h3.2l1.5-3.8h8.4l1.5,3.8h3.2l-6.3-15.6H213.8z M212.9,335l3.3-8.2h0.2l3.3,8.2H212.9z
			"/>
		<path class="st1" d="M245.3,334.1c0,0.9-0.1,1.7-0.3,2.4c-0.2,0.7-0.5,1.2-1,1.6c-0.4,0.4-0.9,0.7-1.5,0.9c-0.6,0.2-1.2,0.3-2,0.3
			c-0.7,0-1.4-0.1-2-0.3c-0.6-0.2-1.1-0.5-1.5-0.9c-0.4-0.4-0.7-1-1-1.6c-0.2-0.7-0.3-1.5-0.3-2.4v-9.3h-3.2v9.3
			c0,2.3,0.7,4,2.1,5.1c1.4,1.1,3.3,1.7,5.9,1.7c2.5,0,4.5-0.6,5.9-1.7c1.4-1.1,2.1-2.8,2.1-5.1v-9.3h-3.2V334.1z"/>
		<path class="st1" d="M271.4,333.6c-0.8-0.7-1.8-1.3-3.2-1.7l-4.2-1.3c-0.6-0.2-1.1-0.4-1.5-0.5c-0.4-0.2-0.7-0.4-1-0.6
			c-0.2-0.2-0.4-0.4-0.5-0.6c-0.1-0.2-0.2-0.5-0.2-0.8c0-0.6,0.3-1,0.8-1.4c0.6-0.4,1.4-0.6,2.5-0.6c1.3,0,2.5,0.2,3.6,0.6
			c1,0.4,2,0.9,2.8,1.7l1.1-1.3c-0.4-0.4-0.9-0.7-1.5-1.1c-0.6-0.3-1.2-0.6-1.8-0.8c-0.7-0.2-1.3-0.4-2.1-0.5
			c-0.7-0.1-1.4-0.2-2.2-0.2c-1.2,0-2.2,0.1-3.1,0.3s-1.5,0.5-2.1,0.9c-0.5,0.4-0.9,0.8-1.2,1.4c-0.3,0.5-0.4,1-0.4,1.6
			c0,1.1,0.4,2,1.1,2.6c0.7,0.7,1.8,1.3,3.1,1.7l4.2,1.3c1.2,0.4,2,0.8,2.5,1.1c0.5,0.4,0.7,0.9,0.7,1.4c0,0.7-0.3,1.3-0.9,1.7
			c-0.6,0.4-1.7,0.6-3.2,0.6c-1.3,0-2.6-0.2-3.7-0.6c-1.1-0.4-2.1-0.9-2.9-1.7l-1.1,1.3c0.4,0.4,0.9,0.7,1.5,1.1
			c0.6,0.3,1.2,0.6,1.9,0.8c0.7,0.2,1.4,0.4,2.1,0.5c0.7,0.1,1.5,0.2,2.3,0.2c1.4,0,2.5-0.1,3.5-0.4c0.9-0.2,1.7-0.6,2.3-1
			c0.6-0.4,1-0.9,1.3-1.4c0.3-0.6,0.4-1.2,0.4-1.8C272.6,335.2,272.2,334.3,271.4,333.6z"/>
	</g>
	<g>
		<polygon class="st1" points="144.4,297.4 146.5,297.4 146.5,302.2 147.6,302.2 147.6,297.4 149.7,297.4 149.7,296.8 144.4,296.8 
					"/>
		<polygon class="st1" points="155.3,299.3 152.2,299.3 152.2,296.8 151.1,296.8 151.1,302.2 152.2,302.2 152.2,299.9 155.3,299.9 
			155.3,302.2 156.4,302.2 156.4,296.8 155.3,296.8 		"/>
		<polygon class="st1" points="163,297.4 163,296.8 158.3,296.8 158.3,302.2 163,302.2 163,301.7 159.4,301.7 159.4,299.8 
			162.2,299.8 162.2,299.2 159.4,299.2 159.4,297.4 		"/>
	</g>
</g>
<rect x="144.4" y="358.2" class="st0" width="18.5" height="4.2"/>
</svg>
