<?xml version="1.0" encoding="utf-8"?>
<!-- Generator: Adobe Illustrator 19.2.1, SVG Export Plug-In . SVG Version: 6.00 Build 0)  -->
<svg version="1.1" id="Слой_1" xmlns="http://www.w3.org/2000/svg" xmlns:xlink="http://www.w3.org/1999/xlink" x="0px" y="0px"
	 viewBox="0 0 35.7 36.4" style="enable-background:new 0 0 35.7 36.4;" xml:space="preserve">
<style type="text/css">
	.st0{fill:#E5BF92;}
</style>
<path class="st0" d="M35.7,18.2C35.7,18.1,35.7,18.1,35.7,18.2l0.1-0.1l0,0c-0.1-0.1-0.1-0.1-0.2-0.2c-0.8-1.5-2-2.7-3.2-3.6
	c1.1-1.3,1.6-3.1,1.5-5.1l0,0l0,0c-1.3-0.9-2.7-1.4-4.1-1.4c-0.4,0-0.7,0-1.1,0.1c-0.1-1.6-0.7-3.4-1.7-5l0-0.1l-0.1,0c0,0,0,0,0,0
	l0,0l-0.1,0c-0.2,0-0.4,0-0.7,0c-1.7,0-3.2,0.4-4.5,1c-0.5-1.6-1.8-3-3.7-3.8l0,0l0,0c-1.8,0.9-3.1,2.3-3.7,3.8
	c-1.3-0.7-2.8-1-4.5-1c-0.2,0-0.4,0-0.6,0l-0.1,0l0,0.1l0,0c-1.1,1.6-1.6,3.3-1.7,5C6.8,7.8,6.5,7.8,6.1,7.8C4.7,7.8,3.3,8.3,2,9.2
	l0,0l0,0c-0.2,2,0.4,3.8,1.5,5.1c-1.3,0.8-2.4,2-3.2,3.6C0.2,17.9,0.1,18,0,18l0,0l0,0.1c0,0,0,0.1,0,0.1c0,0,0,0.1,0,0.1l0,0.1
	c0,0,0.2,0.1,0.2,0.2c0.8,1.5,2,2.7,3.2,3.6c-1.1,1.3-1.6,3.1-1.5,5.1l0,0l0,0c1.3,0.9,2.7,1.4,4.1,1.4h0c0.4,0,0.7,0,1.1-0.1
	c0.1,1.6,0.7,3.4,1.7,5l0,0.1l0.1,0l0,0l0,0l0.1,0c0.2,0,0.4,0,0.6,0c1.7,0,3.2-0.4,4.5-1c0.5,1.6,1.8,3,3.7,3.8l0,0l0,0
	c1.8-0.9,3.1-2.3,3.7-3.8c1.3,0.7,2.8,1,4.5,1c0,0,0,0,0,0c0.2,0,0.4,0,0.6,0l0.1,0l0-0.1l0,0c1.1-1.6,1.6-3.3,1.7-5
	c0.3,0.1,0.7,0.1,1.1,0.1h0c1.4,0,2.8-0.5,4.1-1.4l0,0l0,0c0.2-2-0.4-3.8-1.5-5.1c1.3-0.8,2.4-2,3.2-3.6c0.1-0.1,0.1-0.1,0.2-0.2
	l0,0L35.7,18.2C35.7,18.2,35.7,18.2,35.7,18.2z M35.2,17.6c-1.1-0.8-2.4-1.2-3.7-1.2c-0.7,0-1.3,0.1-2,0.3c-0.9,0.3-1.8,0.7-2.5,1.4
	c-1-0.8-1.8-1.8-2.5-3.1c1.2,0.7,2.5,1.1,3.7,1.1h0c1,0,1.9-0.2,2.7-0.7c0.5-0.3,0.9-0.6,1.2-1C33.3,15.1,34.4,16.2,35.2,17.6z
	 M21.3,12.3c0.4,0.6,0.6,1.3,0.6,1.9c-0.2,0-0.4,0.1-0.6,0.2c-0.7,0.4-1.1,1.3-1.1,2.3c-0.3-0.5-0.5-1-0.6-1.5
	c0.3-0.1,0.6-0.3,0.9-0.5C21.2,14,21.5,13.2,21.3,12.3z M20.6,21.8c-0.2-0.2-0.5-0.4-0.9-0.6c0.1-0.5,0.3-1,0.6-1.5
	c0,1,0.4,1.8,1.1,2.3c0.2,0.1,0.4,0.2,0.6,0.2c0,0.6-0.2,1.2-0.6,1.8C21.5,23.1,21.2,22.4,20.6,21.8z M14.4,24.1
	c-0.4-0.6-0.6-1.3-0.6-1.9c0.2,0,0.4-0.1,0.6-0.2c0.7-0.4,1.1-1.3,1.1-2.3c0.3,0.5,0.5,1,0.6,1.5c-0.3,0.1-0.6,0.3-0.9,0.5
	C14.5,22.4,14.3,23.2,14.4,24.1z M15.2,14.6c0.2,0.2,0.5,0.4,0.9,0.6c-0.1,0.5-0.3,1-0.6,1.5c0-1-0.4-1.8-1.1-2.3
	c-0.2-0.1-0.4-0.2-0.6-0.2c0-0.6,0.2-1.2,0.6-1.8C14.3,13.2,14.5,14,15.2,14.6z M16.3,13.3c0,0.8,0.5,1.6,1.4,2.1
	c-0.6,0-1.1-0.1-1.6-0.3c0-0.3,0-0.7,0-1c-0.2-0.8-0.7-1.5-1.6-1.8c0.7,0,1.4,0.1,1.9,0.4C16.3,12.9,16.3,13.1,16.3,13.3z
	 M16.5,12.7c0.2,0.1,0.4,0.3,0.6,0.4c0.6,0.6,0.9,1.4,0.8,2.2c-0.9-0.5-1.4-1.2-1.4-2.1C16.4,13.1,16.4,12.9,16.5,12.7z M16,14.1
	c0.1,0.3,0.1,0.6,0.1,1c-0.3-0.1-0.6-0.3-0.8-0.5c-0.6-0.6-0.9-1.4-0.8-2.2C15.2,12.6,15.8,13.3,16,14.1z M14.3,14.5
	c0.7,0.4,1.1,1.3,1.1,2.3c-0.8-0.3-1.4-0.9-1.6-1.8c-0.1-0.2-0.1-0.5-0.1-0.7C14,14.3,14.1,14.4,14.3,14.5z M13.8,15
	c0.1,0.6,0.4,1.1,0.9,1.4c-0.3-0.1-0.6-0.2-0.9-0.2c-0.3,0-0.5,0-0.8,0.1c-0.2,0.1-0.5,0.2-0.7,0.3c-0.4-0.5-0.6-1.2-0.6-1.9
	c0.5-0.3,1-0.5,1.5-0.5c0.1,0,0.3,0,0.4,0C13.7,14.5,13.7,14.7,13.8,15z M15.3,16.9c-0.5,0.3-1,0.5-1.5,0.5c-0.4,0-0.7-0.1-1-0.3
	c-0.2-0.1-0.3-0.2-0.5-0.4c0.2-0.1,0.4-0.2,0.6-0.3c0.2-0.1,0.5-0.1,0.7-0.1C14.3,16.3,14.9,16.5,15.3,16.9z M12.8,17.1
	c0.3,0.2,0.7,0.3,1.1,0.3c0.5,0,1-0.2,1.5-0.4c-0.3,0.5-0.6,0.9-1,1.2c-0.3-0.2-0.6-0.4-1-0.5c-0.3-0.1-0.5-0.1-0.8-0.1
	c-0.5,0-1,0.2-1.5,0.5c0.3-0.5,0.7-1,1.2-1.3C12.5,16.9,12.6,17,12.8,17.1z M12.6,17.6c0.2,0,0.5,0,0.7,0.1c0.3,0.1,0.7,0.3,1,0.5
	c-0.3,0.2-0.6,0.4-1,0.5c-0.2,0.1-0.5,0.1-0.7,0.1h0c-0.5,0-1.1-0.2-1.5-0.5c0,0,0-0.1,0-0.1c0,0,0-0.1,0-0.1
	C11.5,17.8,12,17.6,12.6,17.6z M12.6,18.9L12.6,18.9c0.3,0,0.5,0,0.8-0.1c0.4-0.1,0.7-0.3,1-0.5c0.4,0.3,0.7,0.7,1,1.2
	c-0.5-0.3-1-0.4-1.5-0.4c-0.4,0-0.7,0.1-1.1,0.3c-0.2,0.1-0.3,0.2-0.5,0.4c-0.5-0.3-0.9-0.7-1.2-1.3C11.6,18.7,12.1,18.9,12.6,18.9z
	 M15.3,19.5c-0.5,0.4-1,0.6-1.6,0.6c-0.2,0-0.5,0-0.7-0.1c-0.2-0.1-0.4-0.2-0.6-0.3c0.1-0.1,0.3-0.3,0.5-0.4c0.3-0.2,0.7-0.3,1-0.3
	C14.3,19.1,14.9,19.2,15.3,19.5z M12.3,19.7c0.2,0.1,0.4,0.2,0.7,0.3c0.3,0.1,0.5,0.1,0.8,0.1c0.3,0,0.6-0.1,0.9-0.2
	c-0.4,0.4-0.7,0.8-0.9,1.4c-0.1,0.2-0.1,0.5-0.1,0.7c-0.1,0-0.3,0-0.4,0h0c-0.5,0-1.1-0.2-1.5-0.5C11.7,20.9,11.9,20.2,12.3,19.7z
	 M13.8,21.4c0.2-0.8,0.7-1.5,1.6-1.8c0,1-0.3,1.8-1.1,2.3c-0.2,0.1-0.4,0.2-0.6,0.2C13.8,21.9,13.8,21.6,13.8,21.4z M15.2,21.8
	c0.2-0.2,0.5-0.4,0.8-0.5c0,0.3,0,0.7-0.1,1c-0.2,0.8-0.7,1.4-1.5,1.8C14.3,23.2,14.6,22.4,15.2,21.8z M16.1,22.3
	c0.1-0.3,0.1-0.7,0-1c0.4-0.2,0.9-0.3,1.5-0.3c0,0,0.1,0,0.1,0c-0.9,0.5-1.4,1.2-1.4,2.1c0,0.2,0,0.4,0.1,0.6
	c-0.5,0.3-1.1,0.4-1.7,0.4c-0.1,0-0.1,0-0.2,0C15.3,23.8,15.9,23.1,16.1,22.3z M16.4,23.1c0-0.8,0.5-1.6,1.4-2.1
	c0.1,0.9-0.1,1.7-0.8,2.2c-0.2,0.2-0.4,0.3-0.6,0.4C16.4,23.5,16.4,23.3,16.4,23.1z M17.8,20.9c-0.1,0-0.2,0-0.2,0
	c-0.5,0-1,0.1-1.5,0.3c-0.1-0.5-0.3-1.1-0.6-1.6c0,0,0,0,0,0l0,0l0,0c0,0,0,0,0,0c-0.3-0.5-0.6-1-1-1.3c0.4-0.3,0.8-0.8,1-1.3
	c0,0,0-0.1,0-0.1c0.3-0.5,0.6-1.1,0.6-1.6c0.4,0.2,0.9,0.3,1.5,0.3c0.1,0,0.2,0,0.2,0c0,0,0,0,0,0l0,0l0,0c0,0,0,0,0,0
	c0.1,0,0.2,0,0.2,0c0.5,0,1-0.1,1.5-0.3c0.1,0.5,0.3,1.1,0.6,1.6c0,0,0,0,0,0l0,0l0,0c0,0,0,0,0,0c0.3,0.5,0.6,1,1,1.3
	c-0.4,0.3-0.8,0.8-1,1.3c0,0,0,0,0,0l0,0l0,0c0,0,0,0,0,0c-0.3,0.5-0.6,1.1-0.6,1.6c-0.4-0.2-0.9-0.3-1.5-0.3
	C18.1,20.9,18,20.9,17.8,20.9C17.9,20.9,17.9,20.9,17.8,20.9L17.8,20.9L17.8,20.9C17.9,20.9,17.8,20.9,17.8,20.9z M17.9,21
	c0.9,0.5,1.4,1.2,1.4,2.1c0,0.2,0,0.4-0.1,0.6c-0.2-0.1-0.4-0.2-0.6-0.4C18.1,22.7,17.8,21.9,17.9,21z M19.4,23.1
	c0-0.8-0.5-1.6-1.4-2.1c0.6,0,1.1,0.1,1.6,0.3c0,0.3,0,0.7,0,1c0.2,0.8,0.7,1.5,1.6,1.8c-0.1,0-0.1,0-0.2,0c-0.6,0-1.2-0.1-1.7-0.4
	C19.4,23.5,19.4,23.3,19.4,23.1z M19.7,22.3c-0.1-0.3-0.1-0.6-0.1-1c0.3,0.1,0.6,0.3,0.8,0.5c0.6,0.6,0.9,1.4,0.8,2.2
	C20.5,23.7,19.9,23.1,19.7,22.3z M21.4,21.9c-0.7-0.4-1.1-1.3-1.1-2.3c0.8,0.3,1.4,0.9,1.6,1.8c0.1,0.2,0.1,0.5,0.1,0.7
	C21.8,22.1,21.6,22,21.4,21.9z M22,21.4c-0.1-0.6-0.4-1.1-0.9-1.4c0.3,0.1,0.6,0.2,0.9,0.2c0.3,0,0.5,0,0.8-0.1
	c0.2-0.1,0.5-0.2,0.7-0.3c0.4,0.5,0.6,1.2,0.6,1.9c-0.5,0.3-1,0.5-1.5,0.5c-0.1,0-0.3,0-0.4,0C22,21.9,22,21.6,22,21.4z M20.4,19.5
	c0.5-0.3,1-0.5,1.5-0.5c0.4,0,0.7,0.1,1,0.3c0.2,0.1,0.3,0.2,0.5,0.4c-0.2,0.1-0.4,0.2-0.6,0.3c-0.2,0.1-0.5,0.1-0.7,0.1
	C21.4,20.1,20.9,19.9,20.4,19.5z M22.9,19.3c-0.3-0.2-0.7-0.3-1.1-0.3c-0.5,0-1,0.2-1.5,0.4c0.3-0.5,0.6-0.9,1-1.2
	c0.3,0.2,0.6,0.4,1,0.5c0.3,0.1,0.5,0.1,0.8,0.1c0.5,0,1-0.2,1.5-0.5c-0.3,0.5-0.7,1-1.2,1.3C23.3,19.5,23.1,19.4,22.9,19.3z
	 M23.1,18.8c-0.2,0-0.5,0-0.7-0.1c-0.3-0.1-0.7-0.3-1-0.5c0.3-0.2,0.6-0.4,1-0.5c0.2-0.1,0.5-0.1,0.7-0.1c0.5,0,1.1,0.2,1.5,0.5
	c0,0,0,0.1,0,0.1c0,0,0,0.1,0,0.1C24.2,18.6,23.7,18.8,23.1,18.8z M23.1,17.5c-0.3,0-0.5,0-0.8,0.1c-0.4,0.1-0.7,0.3-1,0.5
	c-0.4-0.3-0.7-0.7-1-1.2c0.5,0.3,1,0.4,1.5,0.4h0c0.4,0,0.7-0.1,1.1-0.3c0.2-0.1,0.3-0.2,0.5-0.4c0.5,0.3,0.9,0.7,1.2,1.3
	C24.2,17.7,23.7,17.5,23.1,17.5z M20.4,16.9c0.5-0.4,1-0.6,1.6-0.6c0.2,0,0.5,0,0.7,0.1c0.2,0.1,0.4,0.2,0.6,0.3
	c-0.1,0.1-0.3,0.3-0.5,0.4c-0.3,0.2-0.7,0.3-1,0.3h0C21.4,17.3,20.9,17.2,20.4,16.9z M23.4,16.6c-0.2-0.1-0.4-0.2-0.7-0.3
	c-0.3-0.1-0.5-0.1-0.8-0.1c-0.3,0-0.6,0.1-0.9,0.2c0.4-0.4,0.7-0.8,0.9-1.4c0.1-0.2,0.1-0.5,0.1-0.7c0.1,0,0.3,0,0.4,0
	c0.5,0,1.1,0.2,1.5,0.5C24,15.5,23.8,16.2,23.4,16.6z M21.9,15c-0.2,0.8-0.7,1.5-1.6,1.8c0-1,0.3-1.8,1.1-2.3
	c0.2-0.1,0.4-0.2,0.6-0.2C22,14.5,22,14.7,21.9,15z M20.5,14.5c-0.2,0.2-0.5,0.4-0.8,0.5c0-0.3,0-0.7,0.1-1c0.2-0.8,0.7-1.4,1.5-1.8
	C21.4,13.2,21.1,14,20.5,14.5z M19.7,14.1c-0.1,0.3-0.1,0.7,0,1c-0.4,0.2-0.9,0.3-1.5,0.3c0,0-0.1,0-0.1,0c0.9-0.5,1.4-1.2,1.4-2.1
	c0-0.2,0-0.4-0.1-0.6c0.5-0.3,1.1-0.4,1.7-0.4c0.1,0,0.1,0,0.2,0C20.4,12.6,19.9,13.2,19.7,14.1z M19.3,13.3c0,0.8-0.5,1.6-1.4,2.1
	c-0.1-0.9,0.1-1.7,0.8-2.2c0.2-0.2,0.4-0.3,0.6-0.4C19.3,12.9,19.3,13.1,19.3,13.3z M18.6,13.1c-0.4,0.4-0.7,0.9-0.8,1.5
	c-0.1-0.6-0.3-1.1-0.8-1.5c-0.2-0.2-0.4-0.3-0.6-0.4c0.2-0.6,0.7-1.1,1.4-1.5c0.7,0.3,1.2,0.9,1.4,1.5C19,12.8,18.8,12.9,18.6,13.1z
	 M16.4,12.6c-0.5-0.3-1.1-0.4-1.8-0.4c-0.1,0-0.2,0-0.3,0l0,0l0,0l0,0c-0.4,0.6-0.6,1.3-0.7,1.9c-0.1,0-0.3,0-0.4,0
	c-0.5,0-1.1,0.2-1.6,0.5l0,0l0,0c-0.1,0.8,0.2,1.5,0.6,2c-0.5,0.3-0.9,0.8-1.3,1.4c0,0,0,0-0.1,0.1l0,0l0,0c0,0,0,0,0,0c0,0,0,0,0,0
	l0,0l0,0c0,0,0,0,0.1,0.1c0.3,0.6,0.8,1.1,1.3,1.4c-0.4,0.5-0.6,1.2-0.6,2l0,0l0,0c0.5,0.3,1.1,0.5,1.6,0.5c0,0,0,0,0,0
	c0.1,0,0.3,0,0.4,0c0,0.6,0.3,1.3,0.7,1.9l0,0l0,0l0,0l0,0l0,0c0.1,0,0.2,0,0.3,0c0.6,0,1.2-0.1,1.8-0.4c0.2,0.6,0.7,1.1,1.4,1.5
	c0,0,0,0-0.1,0c-0.2,0-0.4,0-0.6,0c-1.4,0-2.7,0.2-3.8,0.7c-0.2-1.4-0.7-2.8-1.6-4.2c0,0,0-0.1,0-0.1l0,0l0,0c0,0-0.1,0-0.1-0.1
	c-0.7-1.4-1.6-2.5-2.6-3.4c1-0.9,1.9-2,2.6-3.4c0,0,0.1,0,0.1-0.1l0,0l0,0c0,0,0-0.1,0-0.1c0.9-1.4,1.4-2.8,1.6-4.2
	c1.1,0.5,2.4,0.7,3.8,0.7h0c0.2,0,0.4,0,0.6,0c0,0,0.1,0,0.1,0C17.1,11.5,16.6,12,16.4,12.6z M16.5,23.7c0.2-0.1,0.4-0.3,0.6-0.4
	c0.4-0.4,0.7-0.9,0.8-1.5c0.1,0.6,0.3,1.1,0.8,1.5c0.2,0.2,0.4,0.3,0.6,0.4c-0.2,0.6-0.7,1.1-1.4,1.5C17.2,24.9,16.7,24.3,16.5,23.7
	z M19.3,23.8c0.5,0.3,1.1,0.4,1.8,0.4c0.1,0,0.2,0,0.3,0l0,0l0,0l0,0c0.4-0.6,0.6-1.3,0.7-1.9c0.1,0,0.3,0,0.4,0h0
	c0.5,0,1.1-0.2,1.6-0.5l0,0l0,0c0.1-0.8-0.2-1.5-0.6-2c0.5-0.3,0.9-0.8,1.3-1.4c0,0,0,0,0.1-0.1l0,0l0,0c0,0,0,0,0,0c0,0,0,0,0,0
	l0,0l0,0c0,0,0,0-0.1-0.1c-0.3-0.6-0.8-1.1-1.3-1.4c0.4-0.5,0.6-1.2,0.6-2l0,0l0,0c-0.5-0.3-1.1-0.5-1.6-0.5c-0.1,0-0.3,0-0.4,0
	c0-0.6-0.3-1.3-0.7-1.9l0,0l0,0c0,0,0,0,0,0l0,0l0,0c-0.1,0-0.2,0-0.3,0c-0.6,0-1.2,0.1-1.8,0.4c-0.2-0.6-0.7-1.1-1.4-1.5
	c0,0,0,0,0.1,0c0.2,0,0.4,0,0.6,0c1.4,0,2.7-0.2,3.8-0.7c0.2,1.4,0.7,2.8,1.6,4.2c0,0,0,0.1,0,0.1l0,0l0,0c0,0,0.1,0,0.1,0.1
	c0.7,1.4,1.6,2.5,2.6,3.4c-1,0.9-1.9,2-2.6,3.4c0,0-0.1,0-0.1,0.1l0,0l0,0c0,0,0,0.1,0,0.1c-0.9,1.4-1.4,2.8-1.6,4.2
	c-1.1-0.5-2.4-0.7-3.8-0.7c-0.2,0-0.4,0-0.6,0c0,0-0.1,0-0.1,0C18.6,24.9,19.1,24.4,19.3,23.8z M24.4,14.8c1.2-1,2.6-1.5,4.1-1.5
	c0.6,0,1.3,0.1,1.9,0.3c0.6,0.2,1.1,0.4,1.7,0.8c-0.3,0.4-0.7,0.7-1.2,0.9C30,15.7,29.1,16,28.2,16C26.9,16,25.6,15.5,24.4,14.8z
	 M28.6,8c0.3-0.1,0.7-0.1,1.1-0.1c1.3,0,2.7,0.5,4,1.3c0.1,2-0.4,3.7-1.5,5c-0.5-0.3-1.1-0.6-1.7-0.8c-0.6-0.2-1.3-0.3-2-0.3
	c-0.8,0-1.6,0.2-2.3,0.4c1.1-0.9,1.9-2.1,2.3-3.6C28.5,9.3,28.6,8.7,28.6,8z M28.2,9.9c-0.5,2.1-1.9,3.8-4,4.6
	c-0.1-2.6,0.9-4.7,2.8-5.8c0.4-0.3,0.9-0.4,1.4-0.6C28.4,8.7,28.4,9.3,28.2,9.9z M26.8,3.1c1,1.6,1.5,3.2,1.6,4.8
	c-0.5,0.1-1,0.3-1.5,0.6c-1.9,1.1-2.9,3.2-2.9,5.8c-0.8-1.3-1.3-2.6-1.5-3.9c0.8-0.4,1.6-0.8,2.2-1.4C26.4,7.4,27.1,5.4,26.8,3.1z
	 M24.7,8.8c-0.6,0.6-1.3,1-2.1,1.4c-0.1-0.9-0.1-1.7,0.1-2.5c0.5-2.1,1.9-3.7,3.9-4.5C27,5.3,26.3,7.3,24.7,8.8z M26,3
	c0.1,0,0.3,0,0.4,0c-2,0.9-3.4,2.5-3.9,4.6c-0.2,0.8-0.2,1.7-0.1,2.6C21.3,10.7,20,11,18.6,11c-0.1,0-0.2,0-0.3,0
	c2.2-1.2,3.6-3.2,3.6-5.4c0-0.5-0.1-1.1-0.2-1.6C22.9,3.3,24.4,3,26,3z M21.7,5.6c0,2.2-1.4,4.1-3.7,5.3c-0.3-2.2,0.3-4.3,2-5.8
	c0.4-0.4,0.9-0.8,1.5-1.1C21.6,4.6,21.7,5.1,21.7,5.6z M17.8,0.2c1.8,0.9,3,2.2,3.6,3.8c-0.6,0.3-1.1,0.7-1.5,1.1
	c-1.1,1-1.8,2.3-2,3.8c-0.2-1.4-0.9-2.7-2-3.8c-0.5-0.4-1-0.8-1.5-1.1C14.8,2.4,16,1,17.8,0.2z M14.2,4.1c0.5,0.3,1,0.6,1.5,1.1
	c1.6,1.5,2.3,3.5,2,5.8C15.4,9.7,14,7.8,14,5.6C14,5.1,14.1,4.6,14.2,4.1z M9.6,3c1.7,0,3.2,0.4,4.5,1c-0.2,0.5-0.2,1-0.2,1.6
	c0,2.2,1.3,4.2,3.6,5.4c-0.1,0-0.2,0-0.3,0h0c-1.4,0-2.6-0.2-3.8-0.7c0.1-0.9,0.1-1.8-0.1-2.6c-0.5-2.2-1.9-3.8-4-4.6
	C9.3,3,9.5,3,9.6,3z M9,3.1c2.1,0.8,3.5,2.4,4,4.6c0.2,0.8,0.2,1.7,0.1,2.5c-0.8-0.4-1.6-0.8-2.2-1.4C9.4,7.3,8.7,5.3,9,3.1z
	 M8.9,3.3c-0.3,2.2,0.5,4.2,2,5.6c0.6,0.6,1.4,1.1,2.3,1.4c-0.2,1.3-0.7,2.7-1.5,3.9c0.1-2.6-1-4.7-2.9-5.8c-0.5-0.3-1-0.5-1.5-0.6
	C7.4,6.4,7.9,4.8,8.9,3.3z M8.7,8.7c1.9,1.1,2.9,3.3,2.8,5.8c-2.1-0.8-3.5-2.4-4-4.6C7.4,9.3,7.3,8.7,7.3,8.1
	C7.8,8.2,8.3,8.4,8.7,8.7z M2.1,9.3C3.4,8.4,4.8,8,6.1,8c0.4,0,0.7,0,1.1,0.1c0,0.6,0,1.3,0.2,1.9c0.3,1.5,1.1,2.7,2.3,3.6
	c-0.7-0.3-1.5-0.4-2.3-0.4c-0.7,0-1.3,0.1-2,0.3c-0.6,0.2-1.2,0.5-1.7,0.8C2.5,13,2,11.3,2.1,9.3z M11.4,14.8
	C10.1,15.6,8.8,16,7.5,16c-1,0-1.8-0.2-2.6-0.7c-0.4-0.3-0.8-0.6-1.2-0.9c0.5-0.3,1.1-0.6,1.7-0.8c0.6-0.2,1.3-0.3,1.9-0.3
	C8.7,13.3,10.1,13.8,11.4,14.8z M3.6,14.4c0.4,0.4,0.8,0.7,1.2,1c0.8,0.5,1.7,0.7,2.7,0.7c1.3,0,2.5-0.4,3.7-1.1
	c-0.7,1.2-1.5,2.3-2.5,3.1C8,17.5,7.2,17,6.3,16.7c-0.6-0.2-1.3-0.3-2-0.3c-1.3,0-2.6,0.4-3.7,1.2C1.4,16.3,2.4,15.2,3.6,14.4z
	 M0.2,18.2c0-0.1,0.1-0.1,0.1-0.2c1.2-0.9,2.5-1.4,3.9-1.4c0.6,0,1.3,0.1,1.9,0.3c0.9,0.3,1.7,0.7,2.5,1.3c-0.8,0.6-1.6,1-2.5,1.3
	c-0.6,0.2-1.3,0.3-1.9,0.3h0c-1.4,0-2.8-0.5-3.9-1.4C0.3,18.4,0.3,18.3,0.2,18.2z M0.6,18.8C1.7,19.5,3,20,4.3,20h0
	c0.7,0,1.3-0.1,2-0.3c0.9-0.3,1.8-0.7,2.5-1.4c1,0.8,1.8,1.8,2.5,3.1c-1.2-0.7-2.5-1.1-3.7-1.1c-1,0-1.9,0.2-2.7,0.7
	c-0.5,0.3-0.9,0.6-1.2,1C2.4,21.2,1.4,20.1,0.6,18.8z M11.4,21.6c-1.2,1-2.6,1.5-4.1,1.5c-0.6,0-1.3-0.1-1.9-0.3
	c-0.6-0.2-1.1-0.4-1.7-0.8c0.3-0.4,0.7-0.7,1.2-0.9c0.8-0.5,1.7-0.7,2.6-0.7C8.8,20.4,10.1,20.8,11.4,21.6z M7.2,28.3
	c-0.3,0.1-0.7,0.1-1.1,0.1h0c-1.3,0-2.7-0.5-4-1.3c-0.1-2,0.4-3.7,1.5-5c0.5,0.3,1.1,0.6,1.7,0.8c0.6,0.2,1.3,0.3,2,0.3
	c0.8,0,1.6-0.2,2.3-0.4c-1.1,0.9-1.9,2.1-2.3,3.6C7.2,27.1,7.2,27.7,7.2,28.3z M7.5,26.5c0.5-2.1,1.9-3.8,4-4.6
	c0.1,2.6-0.9,4.7-2.8,5.8c-0.4,0.3-0.9,0.4-1.4,0.6C7.3,27.7,7.4,27.1,7.5,26.5z M8.9,33.3c-1-1.6-1.5-3.2-1.6-4.8
	c0.5-0.1,1-0.3,1.5-0.6c1.9-1.1,2.9-3.2,2.9-5.8c0.8,1.3,1.3,2.6,1.5,3.9c-0.8,0.4-1.6,0.8-2.2,1.4C9.3,29,8.6,31,8.9,33.3z
	 M11.1,27.6c0.6-0.6,1.3-1,2.1-1.4c0.1,0.9,0.1,1.7-0.1,2.5c-0.5,2.1-1.9,3.7-3.9,4.5C8.8,31.1,9.5,29,11.1,27.6z M9.7,33.4
	c-0.1,0-0.3,0-0.4,0c2-0.9,3.4-2.5,3.9-4.6c0.2-0.8,0.2-1.7,0.1-2.6c1.1-0.5,2.4-0.7,3.8-0.7c0.1,0,0.2,0,0.3,0
	c-2.2,1.2-3.6,3.2-3.6,5.4c0,0.5,0.1,1.1,0.2,1.6C12.9,33,11.3,33.4,9.7,33.4z M14.1,30.8c0-2.2,1.4-4.1,3.7-5.3
	c0.3,2.2-0.3,4.3-2,5.8c-0.4,0.4-0.9,0.8-1.5,1.1C14.2,31.8,14.1,31.3,14.1,30.8z M17.9,36.2c-1.8-0.9-3-2.2-3.6-3.8
	c0.6-0.3,1.1-0.7,1.5-1.1c1.1-1,1.8-2.3,2-3.8c0.2,1.4,0.9,2.7,2,3.8c0.5,0.4,1,0.8,1.5,1.1C20.9,34,19.7,35.3,17.9,36.2z
	 M21.5,32.3c-0.5-0.3-1-0.6-1.5-1.1c-1.6-1.5-2.3-3.5-2-5.8c2.3,1.2,3.7,3.2,3.7,5.3C21.7,31.3,21.7,31.8,21.5,32.3z M26.1,33.4
	C26.1,33.4,26.1,33.4,26.1,33.4c-1.7,0-3.2-0.4-4.5-1c0.2-0.5,0.2-1,0.2-1.6c0-2.2-1.3-4.2-3.6-5.4c0.1,0,0.2,0,0.3,0
	c1.4,0,2.6,0.2,3.8,0.7c-0.1,0.9-0.1,1.8,0.1,2.6c0.5,2.2,1.9,3.8,4,4.6C26.4,33.4,26.2,33.4,26.1,33.4z M26.7,33.3
	c-2.1-0.8-3.5-2.4-4-4.6c-0.2-0.8-0.2-1.7-0.1-2.5c0.8,0.4,1.6,0.8,2.2,1.4C26.3,29,27,31.1,26.7,33.3z M26.9,33.1
	c0.3-2.2-0.5-4.2-2-5.6c-0.6-0.6-1.4-1.1-2.3-1.4c0.2-1.3,0.7-2.7,1.5-3.9c-0.1,2.6,1,4.7,2.9,5.8c0.5,0.3,1,0.5,1.5,0.6
	C28.3,30,27.8,31.6,26.9,33.1z M27,27.7c-1.9-1.1-2.9-3.3-2.8-5.8c2.1,0.8,3.5,2.4,4,4.6c0.1,0.6,0.2,1.2,0.2,1.8
	C27.9,28.2,27.4,28,27,27.7z M33.6,27.1c-1.3,0.9-2.6,1.3-4,1.3h0c-0.4,0-0.7,0-1.1-0.1c0-0.6,0-1.3-0.2-1.9
	c-0.3-1.5-1.1-2.7-2.3-3.6c0.7,0.3,1.5,0.4,2.3,0.4h0c0.7,0,1.3-0.1,2-0.3c0.6-0.2,1.2-0.5,1.7-0.8C33.2,23.4,33.7,25.1,33.6,27.1z
	 M24.4,21.6c1.2-0.8,2.5-1.2,3.8-1.2c1,0,1.8,0.2,2.6,0.7c0.4,0.3,0.8,0.6,1.2,0.9c-0.5,0.3-1.1,0.6-1.7,0.8
	c-0.6,0.2-1.3,0.3-1.9,0.3C27,23.1,25.6,22.6,24.4,21.6z M32.2,21.9c-0.4-0.4-0.8-0.7-1.2-1c-0.8-0.5-1.7-0.7-2.7-0.7
	c-1.3,0-2.5,0.4-3.7,1.1c0.7-1.2,1.5-2.3,2.5-3.1c0.8,0.6,1.6,1.1,2.5,1.4c0.6,0.2,1.3,0.3,2,0.3c1.3,0,2.6-0.4,3.7-1.2
	C34.4,20.1,33.3,21.2,32.2,21.9z M35.4,18.4c-1.2,0.9-2.5,1.4-3.9,1.4c-0.6,0-1.3-0.1-1.9-0.3c-0.9-0.3-1.7-0.7-2.5-1.3
	c0.8-0.6,1.6-1,2.5-1.3c0.6-0.2,1.3-0.3,1.9-0.3c1.4,0,2.8,0.5,3.9,1.4c0,0.1,0.1,0.1,0.1,0.2C35.5,18.2,35.4,18.3,35.4,18.4z"/>
</svg>
